<svg xmlns="http://www.w3.org/2000/svg" version="1.1" xmlns:xlink="http://www.w3.org/1999/xlink" xmlns:svgjs="http://svgjs.dev/svgjs" viewBox="0 0 800 800"><defs><linearGradient x1="50%" y1="0%" x2="50%" y2="100%" id="ccchaos-grad"><stop stop-color="hsl(206, 75%, 49%)" stop-opacity="1" offset="0%"></stop><stop stop-color="hsl(331, 90%, 56%)" stop-opacity="1" offset="100%"></stop></linearGradient></defs><g stroke-width="2" stroke="url(#ccchaos-grad)" fill="none" stroke-linecap="round"><path d="M378.3 118.64C387.66 121.72 396.96 124.85 406.18 127.86 415.42 130.21 424.59 132.29 433.69 134.1 442.83 135.16 451.92 136.02 460.97 136.76 470.09 136.99 479.2 137.33 488.31 137.9 497.53 138.35 506.78 139.3 516.07 140.84 525.51 142.63 535.01 145.19 544.58 148.55 554.31 152.38 564.11 157.07 573.94 162.6 583.92 168.62 593.9 175.43 603.83 182.92 613.82 190.82 623.67 199.31 633.29 208.27 642.82 217.49 651.99 227.07 660.68 236.91 669.06 246.87 676.8 257.01 683.75 267.26 690.19 277.53 695.68 287.85 700.13 298.2 703.87 308.52 706.47 318.85 707.84 329.16 708.47 339.44 707.89 349.72 706.1 359.98 703.7 370.22 700.24 380.47 695.81 390.7 691.09 400.93 685.65 411.15 679.65 421.34 673.81 431.52 667.86 441.43 661.95 451.01 656.6 460.58 651.5 469.79 646.75 478.6 642.75 487.34 639.16 495.63 635.97 503.41 633.56 511.08 631.47 518.18 629.65 524.67 627.91 533.86 625.17 548.84 623.62 554.73 621.93 560.13 616.14 569.62 611.72 574.47 608.4 578.38 604.42 582.66 599.78 587.46 594.92 593.24 589.41 599.77 583.3 607.1 576.98 615.5 570.08 624.68 562.67 634.53 555.09 645.09 547.04 655.96 538.58 666.83 530.02 677.61 521.09 687.74 511.85 696.8 502.56 704.76 493 711.01 483.22 715.2 473.42 717.6 463.43 717.67 453.28 715.36 443.13 711.36 432.84 705.34 422.44 697.62 412.04 689.22 401.77 680.25 391.66 671.22 381.54 662.94 371.57 655.42 361.75 648.96 351.92 644.12 342.23 640.61 332.7 638.42 323.14 637.86 313.73 638.33 304.48 639.55 295.19 641.77 286.04 644.16 277.07 646.4 268.06 648.78 259.21 650.45 250.55 651.2 241.86 651.39 233.37 650.35 225.11 648.03 216.84 644.85 208.82 640.34 201.07 634.61 193.36 628.06 185.95 620.45 178.89 611.93 171.9 602.83 165.29 593.05 159.09 582.78 153.02 572.19 147.38 561.3 142.23 550.24 137.23 539.09 132.73 527.89 128.77 516.74 124.97 505.61 121.72 494.58 119.04 483.7 116.52 472.88 114.56 462.21 113.18 451.72 111.94 441.28 111.27 431 111.17 420.9 111.16 410.82 111.7 400.9 112.8 391.16 113.93 381.42 115.55 372.07 117.62 363.12 119.66 354.15 122.11 345.57 124.93 337.38 127.67 329.17 130.75 321.35 134.15 313.91 137.4 306.43 140.96 299.31 144.79 292.54 148.45 285.69 152.38 279.14 156.56 272.86 160.57 266.43 164.83 260.19 169.34 254.11 173.7 247.76 178.32 241.48 183.2 235.21 187.96 228.57 193 221.87 198.31 215.07 203.55 207.85 209.09 200.5 214.92 193.04 220.71 185.22 226.82 177.35 233.23 169.51 239.63 161.51 246.35 153.7 253.36 146.22 260.39 138.89 267.71 132.13 275.32 126.08 282.94 120.53 290.84 115.9 299 112.31 307.16 109.43 315.57 107.67 324.2 107.06 332.83 107.09 341.68 108.14 350.7 110.13 359.73 112.39 368.93 115.28 378.29 118.64" stroke-dasharray="0 1" transform="rotate(0, 400, 400)" opacity="0.20"></path><path d="M379.69 129.77C388.72 132.83 397.72 135.94 406.68 138.95 415.65 141.34 424.6 143.49 433.5 145.38 442.44 146.57 451.36 147.55 460.27 148.39 469.24 148.72 478.23 149.11 487.22 149.67 496.32 150.06 505.46 150.87 514.63 152.17 523.93 153.64 533.28 155.79 542.68 158.67 552.2 161.94 561.77 166.01 571.33 170.86 580.99 176.16 590.61 182.22 600.14 188.97 609.67 196.13 619.03 203.88 628.11 212.14 637.06 220.7 645.62 229.65 653.68 238.92 661.42 248.35 668.51 258.01 674.83 267.82 680.66 277.7 685.58 287.68 689.5 297.7 692.79 307.73 694.99 317.79 696.06 327.83 696.47 337.87 695.77 347.89 693.95 357.87 691.6 367.85 688.27 377.79 684.04 387.67 679.57 397.56 674.43 407.39 668.75 417.13 663.22 426.86 657.55 436.26 651.9 445.3 646.75 454.31 641.79 462.93 637.11 471.12 633.11 479.26 629.45 486.92 626.14 494.07 623.54 501.13 621.22 507.65 619.14 513.6 616.96 522.09 613.41 536.22 611.57 542.04 609.7 547.66 603.96 558.41 599.8 564.24 596.72 568.85 593.05 573.89 588.78 579.45 584.34 585.93 579.29 593.08 573.68 600.94 567.89 609.69 561.55 619.08 554.7 628.95 547.71 639.35 540.26 649.87 532.39 660.22 524.41 670.35 516.07 679.74 507.4 688.01 498.67 695.2 489.65 700.71 480.39 704.29 471.11 706.21 461.6 705.98 451.92 703.57 442.22 699.63 432.36 693.84 422.36 686.48 412.36 678.51 402.46 669.97 392.69 661.34 382.9 653.33 373.24 645.96 363.71 639.49 354.17 634.46 344.75 630.6 335.47 627.93 326.17 626.78 317 626.6 307.98 627.19 298.93 628.79 290.02 630.66 281.27 632.53 272.5 634.67 263.89 636.3 255.46 637.21 247.02 637.77 238.78 637.29 230.76 635.69 222.75 633.4 214.99 629.92 207.5 625.29 200.05 619.93 192.91 613.52 186.11 606.2 179.4 598.31 173.05 589.68 167.11 580.47 161.29 570.91 155.91 560.95 150.99 550.72 146.22 540.33 141.95 529.81 138.19 519.24 134.59 508.64 131.52 498.06 129 487.58 126.64 477.12 124.83 466.78 123.58 456.59 122.46 446.43 121.89 436.42 121.87 426.6 121.95 416.78 122.56 407.14 123.7 397.68 124.88 388.22 126.52 379.15 128.61 370.48 130.65 361.8 133.1 353.49 135.9 345.57 138.61 337.61 141.66 330.01 145.01 322.76 148.22 315.45 151.72 308.47 155.48 301.78 159.08 294.98 162.94 288.44 167.02 282.1 170.95 275.59 175.12 269.22 179.51 262.95 183.76 256.4 188.26 249.88 192.99 243.35 197.61 236.46 202.48 229.5 207.62 222.45 212.66 215.04 217.99 207.52 223.59 199.94 229.14 192.08 234.98 184.22 241.11 176.46 247.22 168.62 253.62 161.04 260.31 153.85 266.99 146.87 273.96 140.49 281.21 134.84 288.45 129.7 295.97 125.48 303.74 122.27 311.51 119.73 319.53 118.26 327.78 117.88 336.02 118.09 344.48 119.25 353.14 121.3 361.8 123.58 370.65 126.45 379.68 129.77" stroke-dasharray="7 1" transform="rotate(4.04, 400, 400)" opacity="0.37"></path><path d="M381.72 140.91C390.43 143.93 399.15 147.01 407.84 150.02 416.55 152.44 425.26 154.66 433.95 156.63 442.68 157.93 451.42 159.04 460.16 159.99 468.95 160.43 477.78 160.9 486.62 161.49 495.55 161.85 504.52 162.56 513.52 163.68 522.62 164.89 531.77 166.7 540.93 169.15 550.19 171.91 559.45 175.4 568.68 179.61 577.97 184.23 587.18 189.57 596.25 195.58 605.29 201.97 614.12 208.97 622.63 216.49 630.99 224.32 638.93 232.58 646.36 241.19 653.47 250 659.93 259.08 665.64 268.35 670.88 277.73 675.27 287.24 678.7 296.83 681.56 306.46 683.42 316.14 684.22 325.81 684.44 335.51 683.63 345.18 681.8 354.81 679.51 364.44 676.31 374.02 672.3 383.51 668.07 393.01 663.21 402.42 657.85 411.69 652.62 420.96 647.24 429.87 641.85 438.38 636.89 446.88 632.08 454.97 627.49 462.61 623.51 470.21 619.81 477.34 616.41 483.98 613.64 490.56 611.12 496.64 608.82 502.21 606.24 510.24 601.92 524.04 599.77 530.04 597.69 536.08 591.89 548.32 587.9 555.14 585 560.43 581.58 566.15 577.62 572.39 573.52 579.44 568.88 587.08 563.7 595.32 558.39 604.29 552.55 613.73 546.22 623.5 539.77 633.61 532.87 643.69 525.55 653.46 518.14 662.9 510.36 671.53 502.23 679.02 494.05 685.44 485.57 690.27 476.82 693.27 468.05 694.76 459.03 694.26 449.81 691.76 440.58 687.9 431.16 682.34 421.58 675.35 412 667.79 402.48 659.68 393.06 651.44 383.64 643.73 374.3 636.52 365.08 630.08 355.85 624.9 346.73 620.76 337.72 617.67 328.71 615.98 319.81 615.2 311.04 615.17 302.26 616.15 293.61 617.47 285.12 618.89 276.61 620.71 268.26 622.18 260.1 623.12 251.93 623.88 243.96 623.79 236.21 622.75 228.48 621.19 221 618.56 213.79 614.9 206.63 610.6 199.78 605.31 193.26 599.13 186.83 592.41 180.76 584.92 175.09 576.81 169.54 568.32 164.41 559.36 159.74 550.05 155.22 540.53 151.17 530.79 147.62 520.93 144.23 510.98 141.35 500.99 139 491.03 136.8 481.05 135.13 471.14 134 461.34 133 451.55 132.53 441.89 132.6 432.38 132.75 422.88 133.42 413.53 134.6 404.36 135.82 395.19 137.48 386.39 139.57 377.97 141.62 369.53 144.05 361.45 146.83 353.72 149.52 345.95 152.53 338.51 155.83 331.37 159 324.17 162.44 317.23 166.13 310.55 169.67 303.74 173.45 297.13 177.45 290.68 181.3 284.04 185.38 277.49 189.67 271.01 193.82 264.26 198.2 257.5 202.81 250.71 207.29 243.61 212.02 236.44 216.98 229.19 221.86 221.64 226.99 214.04 232.39 206.41 237.71 198.58 243.32 190.82 249.19 183.21 255.03 175.61 261.14 168.32 267.53 161.46 273.9 154.87 280.54 148.9 287.45 143.68 294.35 138.97 301.52 135.15 308.93 132.32 316.34 130.12 323.99 128.93 331.88 128.77 339.75 129.14 347.86 130.4 356.17 132.49 364.48 134.79 372.99 137.63 381.71 140.9" stroke-dasharray="10 3" transform="rotate(8.08, 400, 400)" opacity="0.95"></path><path d="M384.32 152.04C392.73 155.03 401.15 158.08 409.58 161.07 418.03 163.52 426.49 165.79 434.96 167.84 443.46 169.26 451.98 170.48 460.52 171.56 469.11 172.13 477.73 172.69 486.38 173.33 495.1 173.71 503.85 174.36 512.63 175.35 521.48 176.36 530.36 177.88 539.23 179.97 548.16 182.29 557.07 185.26 565.92 188.89 574.79 192.86 583.54 197.52 592.12 202.8 600.63 208.45 608.9 214.68 616.83 221.45 624.59 228.51 631.91 236.04 638.71 243.93 645.2 252.05 651.05 260.47 656.19 269.11 660.88 277.9 664.75 286.85 667.74 295.91 670.21 305.04 671.75 314.24 672.32 323.46 672.37 332.71 671.47 341.96 669.65 351.15 667.42 360.37 664.38 369.53 660.57 378.59 656.58 387.65 652.01 396.61 646.95 405.41 642.01 414.22 636.92 422.65 631.78 430.68 627.03 438.7 622.37 446.31 617.89 453.49 613.95 460.63 610.24 467.34 606.76 473.59 603.87 479.81 601.18 485.59 598.69 490.92 595.75 498.73 590.69 512.61 588.24 518.98 585.92 525.56 579.96 539.41 576.07 547.19 573.31 553.08 570.08 559.4 566.37 566.2 562.56 573.69 558.25 581.69 553.46 590.16 548.55 599.2 543.16 608.57 537.31 618.1 531.35 627.82 524.95 637.38 518.15 646.51 511.27 655.24 504.01 663.1 496.41 669.82 488.76 675.51 480.79 679.68 472.55 682.15 464.28 683.23 455.75 682.5 447 679.94 438.24 676.17 429.28 670.85 420.12 664.21 410.97 657.07 401.86 649.38 392.81 641.52 383.76 634.12 374.78 627.11 365.89 620.73 357 615.46 348.19 611.08 339.49 607.64 330.78 605.46 322.18 604.12 313.7 603.5 305.22 603.86 296.85 604.61 288.64 605.56 280.43 606.97 272.37 608.19 264.48 609.04 256.62 609.84 248.94 609.98 241.48 609.34 234.06 608.33 226.88 606.39 219.97 603.54 213.12 600.17 206.57 595.88 200.34 590.73 194.21 585.1 188.43 578.71 183.04 571.67 177.78 564.26 172.92 556.33 168.5 547.98 164.23 539.4 160.41 530.53 157.08 521.45 153.9 512.26 151.21 502.95 149.03 493.6 146.99 484.2 145.46 474.81 144.46 465.48 143.58 456.15 143.2 446.89 143.34 437.75 143.57 428.62 144.29 419.6 145.5 410.73 146.75 401.85 148.43 393.32 150.51 385.13 152.56 376.92 154.97 369.03 157.72 361.45 160.38 353.82 163.35 346.48 166.59 339.4 169.72 332.25 173.11 325.31 176.73 318.58 180.21 311.71 183.92 305 187.85 298.4 191.62 291.61 195.61 284.88 199.81 278.18 203.87 271.24 208.14 264.28 212.63 257.28 216.99 250.01 221.58 242.69 226.4 235.32 231.12 227.71 236.08 220.08 241.28 212.5 246.41 204.78 251.8 197.19 257.44 189.81 263.03 182.51 268.88 175.56 275 169.09 281.08 162.92 287.43 157.39 294.03 152.61 300.61 148.33 307.45 144.93 314.53 142.47 321.6 140.59 328.91 139.67 336.46 139.71 343.99 140.23 351.76 141.59 359.74 143.71 367.71 146 375.91 148.82 384.31 152.04" stroke-dasharray="7 6" transform="rotate(12.12, 400, 400)" opacity="0.90"></path><path d="M387.42 163.18C395.52 166.11 403.66 169.12 411.82 172.09 419.99 174.56 428.19 176.88 436.42 179 444.67 180.53 452.95 181.88 461.26 183.08 469.61 183.78 478 184.46 486.4 185.17 494.86 185.6 503.35 186.23 511.85 187.14 520.4 188.01 528.95 189.31 537.48 191.1 546.04 193.04 554.55 195.56 562.96 198.67 571.37 202.06 579.63 206.07 587.68 210.68 595.65 215.6 603.34 221.1 610.68 227.11 617.83 233.41 624.54 240.17 630.73 247.32 636.62 254.7 641.89 262.4 646.47 270.36 650.65 278.48 654.05 286.79 656.63 295.25 658.74 303.8 660 312.44 660.36 321.12 660.27 329.85 659.31 338.6 657.51 347.31 655.36 356.05 652.46 364.73 648.85 373.32 645.1 381.92 640.8 390.41 636.05 398.75 631.4 407.09 626.58 415.06 621.7 422.66 617.15 430.24 612.67 437.44 608.31 444.24 604.43 451.02 600.72 457.4 597.21 463.38 594.21 469.35 591.39 474.95 588.73 480.18 585.47 487.93 579.75 502.25 577 509.1 574.43 516.3 568.25 531.73 564.41 540.37 561.73 546.79 558.64 553.59 555.12 560.81 551.55 568.61 547.52 576.81 543.05 585.36 538.5 594.33 533.49 603.49 528.06 612.68 522.54 621.92 516.61 630.89 510.28 639.35 503.89 647.33 497.12 654.43 490.02 660.4 482.87 665.4 475.4 668.96 467.65 670.93 459.87 671.65 451.83 670.71 443.55 668.12 435.26 664.45 426.75 659.37 418.03 653.08 409.32 646.33 400.62 639.06 391.96 631.6 383.31 624.5 374.7 617.71 366.17 611.43 357.63 606.11 349.17 601.56 340.79 597.81 332.42 595.2 324.14 593.36 315.97 592.19 307.81 591.96 299.77 592.15 291.86 592.58 283.97 593.54 276.22 594.43 268.65 595.07 261.11 595.81 253.75 596.03 246.61 595.63 239.51 594.99 232.65 593.58 226.06 591.37 219.54 588.76 213.3 585.32 207.38 581.09 201.57 576.45 196.09 571.07 190.99 565.04 186.02 558.67 181.44 551.74 177.28 544.36 173.26 536.74 169.68 528.77 166.57 520.53 163.6 512.15 161.1 503.59 159.09 494.92 157.22 486.19 155.83 477.4 154.95 468.6 154.18 459.79 153.89 451 154.11 442.27 154.4 433.54 155.16 424.89 156.4 416.33 157.67 407.77 159.36 399.5 161.43 391.53 163.47 383.53 165.86 375.81 168.56 368.35 171.2 360.85 174.12 353.57 177.31 346.52 180.39 339.38 183.72 332.42 187.27 325.61 190.69 318.67 194.33 311.84 198.18 305.09 201.88 298.17 205.79 291.27 209.9 284.39 213.87 277.3 218.05 270.18 222.42 263.03 226.68 255.67 231.14 248.27 235.82 240.86 240.4 233.28 245.2 225.72 250.23 218.26 255.18 210.74 260.37 203.4 265.8 196.32 271.17 189.37 276.79 182.82 282.65 176.78 288.47 171.06 294.55 165.99 300.86 161.66 307.15 157.82 313.69 154.82 320.46 152.72 327.22 151.16 334.22 150.49 341.44 150.72 348.66 151.38 356.1 152.81 363.76 154.95 371.42 157.24 379.31 160.02 387.41 163.17" stroke-dasharray="8 9" transform="rotate(16.16, 400, 400)" opacity="0.99"></path><path d="M390.91 174.31C398.71 177.19 406.55 180.16 414.43 183.09 422.32 185.58 430.25 187.93 438.21 190.11 446.19 191.74 454.21 193.21 462.25 194.54 470.32 195.38 478.43 196.18 486.55 196.99 494.71 197.5 502.89 198.16 511.06 199.03 519.27 199.82 527.45 200.96 535.58 202.5 543.73 204.14 551.8 206.28 559.74 208.94 567.65 211.82 575.38 215.26 582.89 219.24 590.29 223.49 597.4 228.28 604.15 233.57 610.7 239.12 616.82 245.12 622.42 251.52 627.73 258.14 632.45 265.1 636.51 272.34 640.2 279.74 643.17 287.37 645.38 295.16 647.17 303.06 648.16 311.08 648.35 319.18 648.14 327.33 647.14 335.52 645.37 343.69 643.31 351.9 640.55 360.08 637.16 368.17 633.64 376.28 629.61 384.3 625.15 392.18 620.78 400.06 616.24 407.6 611.61 414.81 607.28 422 602.97 428.85 598.74 435.34 594.93 441.83 591.25 447.97 587.73 453.77 584.66 459.6 581.73 465.12 578.94 470.35 575.41 478.19 569.09 493.15 566.05 500.55 564.23 505.75 562.24 511.03 560.04 516.43 557.96 522.25 555.6 528.3 552.94 534.63 550.31 541.45 547.31 548.61 543.95 556.11 540.55 564.07 536.76 572.33 532.56 580.82 528.31 589.59 523.64 598.42 518.58 607.17 513.45 615.86 507.93 624.18 502.04 631.93 496.09 639.17 489.78 645.52 483.15 650.77 476.47 655.1 469.48 658.09 462.21 659.61 454.91 660.01 447.34 658.9 439.52 656.29 431.7 652.73 423.64 647.89 415.38 641.95 407.11 635.59 398.84 628.73 390.59 621.66 382.35 614.88 374.13 608.33 365.97 602.18 357.81 596.86 349.71 592.18 341.69 588.19 333.68 585.21 325.75 582.92 317.92 581.25 310.11 580.46 302.4 580.09 294.83 580.01 287.29 580.48 279.88 580.97 272.65 581.33 265.45 581.88 258.43 582.05 251.63 581.75 244.88 581.33 238.35 580.28 232.09 578.56 225.91 576.54 220.01 573.8 214.41 570.34 208.92 566.54 203.76 562.06 198.96 556.95 194.28 551.54 189.98 545.57 186.09 539.11 182.33 532.44 179 525.36 176.1 517.97 173.35 510.44 171.04 502.66 169.2 494.71 167.49 486.68 166.24 478.54 165.47 470.32 164.81 462.08 164.61 453.8 164.89 445.53 165.24 437.25 166.04 428.98 167.3 420.76 168.59 412.54 170.28 404.55 172.33 396.79 174.35 389.02 176.71 381.46 179.37 374.11 181.96 366.72 184.84 359.51 187.97 352.46 190.99 345.34 194.26 338.35 197.74 331.47 201.11 324.48 204.68 317.55 208.44 310.67 212.08 303.65 215.91 296.63 219.93 289.62 223.82 282.43 227.9 275.23 232.17 268.01 236.32 260.63 240.68 253.25 245.23 245.89 249.68 238.42 254.34 231.03 259.2 223.77 263.99 216.53 269.01 209.51 274.24 202.8 279.41 196.26 284.81 190.15 290.44 184.56 296.03 179.32 301.85 174.72 307.91 170.85 313.93 167.44 320.19 164.84 326.67 163.08 333.14 161.82 339.84 161.39 346.76 161.79 353.67 162.58 360.81 164.07 368.17 166.21 375.52 168.49 383.1 171.22 390.9 174.31" stroke-dasharray="2 9" transform="rotate(20.200000000000003, 400, 400)" opacity="0.11"></path><path d="M394.68 185.44C402.18 188.27 409.73 191.17 417.31 194.07 424.91 196.56 432.55 198.93 440.21 201.17 447.9 202.9 455.62 204.48 463.36 205.93 471.13 206.92 478.93 207.85 486.72 208.77 494.55 209.38 502.37 210.09 510.17 210.98 517.98 211.72 525.76 212.76 533.46 214.13 541.15 215.54 548.74 217.37 556.18 219.66 563.57 222.09 570.77 225.03 577.71 228.46 584.55 232.11 591.08 236.25 597.23 240.86 603.2 245.69 608.73 250.97 613.76 256.64 618.53 262.51 622.72 268.72 626.3 275.24 629.55 281.9 632.12 288.82 633.99 295.93 635.49 303.14 636.26 310.5 636.3 317.97 635.99 325.5 634.97 333.09 633.25 340.7 631.27 348.35 628.67 355.99 625.48 363.58 622.19 371.18 618.42 378.72 614.25 386.16 610.15 393.6 605.88 400.75 601.51 407.6 597.39 414.44 593.26 421 589.18 427.25 585.46 433.51 581.84 439.49 578.33 445.2 575.22 450.95 572.22 456.46 569.32 461.77 565.57 469.79 558.71 485.51 555.43 493.45 553.43 499.03 551.3 504.71 549 510.56 546.82 516.76 544.41 523.19 541.74 529.88 539.12 536.97 536.19 544.34 532.94 551.97 529.68 559.95 526.07 568.12 522.1 576.41 518.09 584.87 513.72 593.28 508.98 601.5 504.19 609.58 499.04 617.22 493.54 624.24 488 630.74 482.12 636.36 475.92 640.92 469.69 644.62 463.15 647.08 456.33 648.2 449.49 648.31 442.38 647.06 435.02 644.45 427.65 641.01 420.05 636.42 412.24 630.81 404.42 624.84 396.58 618.38 388.75 611.7 380.93 605.26 373.12 598.96 365.35 592.97 357.6 587.69 349.88 582.93 342.24 578.76 334.61 575.48 327.05 572.79 319.58 570.67 312.14 569.36 304.8 568.47 297.6 567.88 290.42 567.85 283.37 567.91 276.5 567.92 269.67 568.2 263.01 568.22 256.56 567.89 250.18 567.54 244.01 566.7 238.1 565.3 232.27 563.71 226.71 561.5 221.45 558.66 216.29 555.57 211.45 551.85 206.96 547.53 202.58 542.97 198.57 537.86 194.95 532.27 191.45 526.48 188.35 520.27 185.68 513.7 183.14 507 181.02 500 179.35 492.78 177.8 485.48 176.68 478 176.03 470.39 175.47 462.75 175.36 455.02 175.69 447.22 176.1 439.42 176.93 431.57 178.21 423.71 179.5 415.84 181.18 408.14 183.2 400.62 185.2 393.08 187.53 385.69 190.14 378.46 192.69 371.2 195.51 364.06 198.57 357.04 201.54 349.96 204.74 342.96 208.15 336.04 211.44 329.02 214.94 322.04 218.63 315.09 222.19 308.02 225.95 300.95 229.88 293.88 233.69 286.68 237.68 279.48 241.85 272.28 245.9 264.98 250.15 257.7 254.57 250.49 258.91 243.23 263.43 236.08 268.15 229.12 272.79 222.22 277.64 215.59 282.69 209.3 287.68 203.22 292.89 197.58 298.3 192.48 303.67 187.73 309.27 183.61 315.08 180.19 320.85 177.21 326.85 174.99 333.07 173.56 339.26 172.58 345.68 172.38 352.32 172.93 358.94 173.82 365.78 175.36 372.84 177.51 379.9 179.76 387.18 182.43 394.67 185.44" stroke-dasharray="9 5" transform="rotate(24.24, 400, 400)" opacity="0.78"></path><path d="M398.62 196.58C405.81 199.33 413.06 202.17 420.33 205.02 427.62 207.5 434.95 209.9 442.3 212.17 449.67 213.98 457.07 215.67 464.48 217.24 471.91 218.37 479.35 219.44 486.79 220.49 494.23 221.21 501.67 222.01 509.06 222.94 516.45 223.7 523.78 224.68 531.01 225.95 538.23 227.19 545.31 228.79 552.23 230.78 559.09 232.85 565.73 235.37 572.11 238.32 578.38 241.44 584.33 245 589.91 249 595.31 253.18 600.29 257.78 604.78 262.76 609.02 267.91 612.73 273.41 615.86 279.21 618.7 285.15 620.91 291.35 622.47 297.77 623.72 304.29 624.3 310.98 624.21 317.81 623.83 324.69 622.8 331.67 621.14 338.71 619.26 345.78 616.81 352.87 613.82 359.96 610.75 367.05 607.24 374.12 603.35 381.13 599.52 388.14 595.51 394.92 591.39 401.46 587.49 408 583.55 414.3 579.63 420.37 576.02 426.45 572.47 432.32 568.99 437.99 565.87 443.7 562.82 449.26 559.85 454.68 557.22 460.2 554.63 465.63 552.06 471.02 549.78 476.58 547.47 482.17 545.11 487.81 542.96 493.7 540.7 499.72 538.29 505.9 536.01 512.39 533.54 519.08 530.85 525.99 528.22 533.22 525.33 540.65 522.16 548.26 519 556.12 515.53 564.07 511.75 572.05 507.95 580.08 503.82 587.98 499.36 595.61 494.87 603.03 490.05 609.97 484.9 616.26 479.73 622.03 474.23 626.94 468.44 630.85 462.62 633.97 456.51 635.95 450.12 636.69 443.72 636.56 437.05 635.19 430.14 632.61 423.23 629.3 416.08 624.95 408.71 619.68 401.35 614.08 393.95 608.02 386.55 601.73 379.16 595.62 371.77 589.59 364.42 583.8 357.07 578.59 349.76 573.8 342.51 569.51 335.28 565.98 328.12 562.97 321.04 560.46 313.99 558.68 307.04 557.3 300.22 556.22 293.42 555.69 286.77 555.29 280.27 554.93 273.82 554.86 267.54 554.64 261.47 554.18 252.56 553.4 236.04 549.55 228.52 546.26 221.45 542.16 209.08 530.94 203.86 523.94 200.63 518.94 197.77 513.52 195.32 507.73 192.99 501.81 191.06 495.57 189.55 489.05 188.15 482.47 187.17 475.66 186.62 468.66 186.17 461.63 186.13 454.45 186.52 447.15 186.97 439.85 187.83 432.44 189.11 424.96 190.41 417.47 192.07 410.09 194.06 402.82 196.03 395.53 198.31 388.35 200.86 381.27 203.36 374.16 206.12 367.12 209.11 360.17 212.02 353.16 215.15 346.2 218.48 339.28 221.71 332.3 225.13 325.32 228.73 318.37 232.22 311.33 235.89 304.29 239.73 297.26 243.46 290.13 247.36 283.02 251.43 275.95 255.4 268.81 259.54 261.74 263.84 254.76 268.06 247.8 272.46 240.99 277.04 234.39 281.55 227.91 286.24 221.72 291.12 215.9 295.94 210.31 300.96 205.17 306.18 200.58 311.35 196.32 316.73 192.68 322.31 189.7 327.85 187.14 333.61 185.28 339.57 184.17 345.51 183.45 351.66 183.44 358.02 184.13 364.36 185.11 370.92 186.69 377.69 188.82 384.45 191.04 391.42 193.65 398.61 196.57" stroke-dasharray="3 7" transform="rotate(28.28, 400, 400)" opacity="0.89"></path><path d="M402.61 207.71C409.49 210.39 416.41 213.16 423.37 215.95 430.33 218.41 437.33 220.81 444.34 223.12 451.37 225 458.42 226.78 465.47 228.46 472.53 229.72 479.6 230.93 486.63 232.11 493.68 232.97 500.69 233.88 507.64 234.88 514.58 235.68 521.44 236.67 528.18 237.88 534.89 239.02 541.46 240.45 547.84 242.22 554.16 244.02 560.25 246.19 566.07 248.76 571.77 251.42 577.16 254.49 582.19 257.95 587.04 261.55 591.49 265.54 595.47 269.9 600.86 276.8 608.61 292.35 610.85 300.86 611.87 306.69 612.29 312.73 612.1 318.92 611.66 325.17 610.64 331.54 609.04 338 607.27 344.5 604.97 351.05 602.19 357.64 599.33 364.24 596.07 370.85 592.44 377.45 588.88 384.06 585.13 390.49 581.26 396.75 577.58 403 573.83 409.09 570.08 415 566.6 420.94 563.13 426.73 559.72 432.38 556.61 438.09 553.55 443.7 550.54 449.24 547.82 454.87 545.14 460.48 542.47 466.09 540.05 471.86 537.61 477.68 535.13 483.59 532.84 489.71 530.45 495.96 527.95 502.36 525.58 509.01 523.04 515.83 520.32 522.81 517.67 530.02 514.79 537.38 511.68 544.83 508.6 552.44 505.24 560.05 501.61 567.61 497.98 575.13 494.06 582.45 489.84 589.44 485.61 596.17 481.07 602.39 476.25 607.97 471.4 613.03 466.26 617.27 460.84 620.57 455.4 623.15 449.69 624.69 443.72 625.11 437.73 624.76 431.49 623.31 425.02 620.76 418.53 617.59 411.83 613.48 404.91 608.54 398 603.31 391.05 597.64 384.08 591.73 377.13 585.97 370.17 580.23 363.24 574.65 356.32 569.55 349.43 564.79 342.6 560.42 335.78 556.72 329.03 553.45 322.36 550.6 315.72 548.42 309.17 546.59 302.75 545.06 296.36 544.05 290.1 543.2 284 542.43 275.01 541.73 258.05 539.83 250.17 538.25 242.65 536.26 229.08 529.92 223.12 525.48 217.64 520.35 208.56 507.64 205.02 500.18 202.9 494.97 201.15 489.43 199.8 483.59 198.56 477.68 197.7 471.51 197.26 465.11 196.89 458.68 196.92 452.06 197.36 445.26 197.85 438.46 198.73 431.51 200.01 424.42 201.31 417.34 202.94 410.29 204.89 403.3 206.83 396.3 209.05 389.35 211.54 382.45 213.98 375.54 216.67 368.66 219.58 361.82 222.42 354.94 225.47 348.08 228.72 341.24 231.87 334.36 235.21 327.47 238.72 320.61 242.14 313.68 245.72 306.76 249.47 299.86 253.11 292.91 256.92 285.99 260.89 279.13 264.76 272.26 268.79 265.48 272.99 258.84 277.09 252.25 281.37 245.84 285.82 239.69 290.19 233.67 294.74 227.97 299.46 222.65 304.12 217.58 308.97 212.97 313.99 208.88 321.56 203.53 337.6 196.48 346.08 194.9 351.77 194.42 357.66 194.59 363.75 195.4 369.83 196.46 376.1 198.06 382.58 200.16 389.05 202.34 395.72 204.87 402.6 207.71" stroke-dasharray="10 10" transform="rotate(32.32, 400, 400)" opacity="0.89"></path><path d="M406.51 218.85C413.07 221.44 419.66 224.13 426.28 226.86 432.9 229.29 439.55 231.68 446.21 234 452.87 235.94 459.55 237.81 466.21 239.58 472.88 240.97 479.54 242.32 486.15 243.63 492.77 244.63 499.33 245.66 505.81 246.75 512.28 247.64 518.65 248.66 524.89 249.86 531.09 250.96 537.13 252.3 542.98 253.91 551.52 256.47 567.14 263.32 574.06 267.66 580.37 272.5 590.58 284.04 594.35 290.67 597.27 297.72 600.09 313.18 599.96 321.47 599.49 327.11 598.48 332.89 596.96 338.8 595.29 344.74 593.15 350.77 590.57 356.88 587.93 363 584.91 369.17 581.54 375.39 578.24 381.61 574.74 387.71 571.12 393.7 567.65 399.7 564.11 405.58 560.54 411.36 557.19 417.16 553.84 422.88 550.5 428.52 547.43 434.21 544.38 439.86 541.36 445.49 538.6 451.21 535.85 456.94 533.11 462.71 530.59 468.61 528.04 474.59 525.46 480.66 523.05 486.9 520.56 493.27 517.98 499.76 515.52 506.43 512.92 513.24 510.16 520.15 507.49 527.22 504.62 534.36 501.55 541.53 498.52 548.77 495.26 555.95 491.76 562.99 488.27 569.94 484.52 576.63 480.51 582.94 476.5 588.97 472.23 594.48 467.69 599.35 460.72 605.53 445.48 612.73 437.23 613.44 431.64 612.91 425.81 611.4 419.76 608.91 413.7 605.89 407.43 602.03 400.96 597.41 394.49 592.53 387.98 587.25 381.46 581.72 374.95 576.3 368.43 570.86 361.93 565.52 355.45 560.58 348.99 555.88 342.58 551.5 336.19 547.67 329.87 544.2 323.62 541.09 317.4 538.56 311.28 536.35 305.27 534.4 296.38 532.31 279.38 529.22 271.35 527.84 263.61 526.58 249.33 522.94 242.87 520.31 236.81 517.24 226.3 508.91 221.91 503.64 218.01 497.83 212.09 484.22 210.11 476.53 208.65 468.45 207.7 450.94 208.22 441.6 208.75 435.3 209.64 428.81 210.91 422.14 212.19 415.47 213.8 408.79 215.7 402.11 217.59 395.43 219.76 388.76 222.18 382.1 224.55 375.42 227.17 368.75 229.99 362.09 232.75 355.41 235.72 348.72 238.87 342.05 241.94 335.35 245.19 328.64 248.61 321.95 251.94 315.23 255.43 308.52 259.08 301.85 262.63 295.17 266.34 288.54 270.2 282 273.98 275.48 277.9 269.08 281.98 262.85 285.98 256.7 290.13 250.76 294.44 245.1 298.68 239.59 303.09 234.42 307.65 229.64 312.16 225.09 316.84 221.01 321.68 217.42 328.97 212.79 344.38 206.92 352.5 205.76 357.96 205.5 363.6 205.83 369.42 206.74 375.23 207.85 381.22 209.46 387.41 211.53 393.58 213.65 399.95 216.1 406.5 218.84" stroke-dasharray="9 9" transform="rotate(36.36, 400, 400)" opacity="0.38"></path><path d="M410.21 229.98C416.43 232.48 422.69 235.09 428.95 237.74 435.22 240.12 441.5 242.5 447.78 244.82 460.36 248.45 472.91 251.83 485.25 255.01 497.57 257.01 509.6 259.22 521.1 261.83 532.41 263.95 543.01 266.96 552.59 271 561.74 275.1 569.61 280.47 575.93 287.07 581.55 293.93 585.41 301.99 587.31 311.05 588.44 320.32 587.64 330.45 584.9 341.21 583.35 346.62 581.36 352.16 578.97 357.81 576.53 363.47 573.75 369.23 570.64 375.08 567.59 380.93 564.34 386.73 560.96 392.46 557.72 398.2 554.38 403.9 550.99 409.53 544.8 420.88 538.53 432.15 532.32 443.39 526.99 454.96 521.6 466.77 516.11 478.85 511.28 491.48 506.09 504.52 500.43 517.82 495.11 531.48 489.08 545.08 482.27 558.09 475.54 570.57 467.89 581.59 459.34 590.4 450.75 597.39 441.22 601.31 430.8 601.71 425.58 601.03 420.14 599.48 414.5 597.07 408.86 594.19 403.01 590.57 396.98 586.27 390.95 581.75 384.88 576.85 378.8 571.7 372.73 566.62 366.65 561.49 360.59 556.41 348.51 547.28 336.55 539.01 324.9 531.91 313.36 526.81 302.19 522.66 291.6 519.17 281.19 517.01 271.44 514.71 262.54 511.88 253.91 509.41 246.22 505.8 239.64 500.88 233.42 495.8 228.37 489.24 224.65 481.29 221.28 473.12 219.24 463.65 218.64 453.07 218.52 444.96 220.11 427.53 221.81 418.27 223.08 412.03 224.65 405.73 226.49 399.41 228.33 393.08 230.43 386.73 232.77 380.35 237.33 367.59 242.77 354.73 248.93 341.89 254.81 329 261.39 316.12 268.54 303.43 275.37 290.81 282.81 278.53 290.79 266.93 298.48 255.75 306.78 245.6 315.65 236.9 324.3 229.13 333.61 223.2 343.52 219.41 353.31 216.81 363.79 216.38 374.91 218.14 380.45 219.29 386.16 220.9 392.05 222.92 397.92 224.97 403.98 227.34 410.2 229.98" stroke-dasharray="11 6" transform="rotate(40.400000000000006, 400, 400)" opacity="0.82"></path><path d="M413.59 241.11C425.35 245.76 437.18 250.68 448.94 255.57 460.72 259.3 472.41 262.85 483.85 266.23 495.24 268.53 506.28 270.98 516.76 273.73 527.04 275.92 536.59 278.83 545.14 282.59 553.3 286.27 560.24 291.05 565.73 296.91 570.62 302.91 573.9 310.01 575.42 318.1 576.3 326.32 575.45 335.41 572.86 345.23 569.9 355.09 565.48 365.57 559.74 376.56 554.18 387.55 547.98 398.54 541.44 409.48 535.54 420.49 529.48 431.6 523.39 442.78 518.06 454.23 512.62 465.96 507.07 477.93 502.11 490.29 496.82 502.92 491.14 515.63 485.78 528.46 479.82 541.03 473.2 552.83 466.69 563.97 459.39 573.61 451.3 581.1 443.21 586.95 434.27 590 424.56 589.9 414.81 587.85 404.29 582.84 393.09 575.14 381.89 566.66 370.57 557.11 359.33 547.31 348.13 538.52 337.06 530.33 326.29 523.04 315.62 517.45 305.32 512.66 295.57 508.49 286 505.58 277.06 502.67 268.92 499.43 261.04 496.67 254.04 493.05 248.08 488.39 242.44 483.72 237.89 477.78 234.58 470.61 231.59 463.29 229.83 454.76 229.4 445.13 229.21 435.42 230.29 424.71 232.71 413.09 235.2 401.48 238.8 389.55 243.31 377.49 247.72 365.44 252.96 353.23 258.89 341.03 264.59 328.85 270.94 316.71 277.84 304.82 284.47 293.09 291.68 281.79 299.38 271.22 306.84 261.13 314.86 252.1 323.4 244.5 331.75 237.77 340.68 232.77 350.17 229.74 359.55 227.74 369.54 227.69 380.12 229.6 390.65 232.07 401.82 236 413.58 241.11" stroke-dasharray="8 4" transform="rotate(44.44, 400, 400)" opacity="0.39"></path><path d="M416.54 252.25C427.59 256.7 438.66 261.46 449.61 266.25 460.56 270.04 471.37 273.73 481.87 277.28 492.32 279.86 502.38 282.55 511.84 285.47 521.12 287.8 529.67 290.71 537.24 294.31 544.45 297.73 550.54 302.07 555.27 307.36 559.5 312.69 562.28 319.01 563.47 326.26 564.15 333.58 563.28 341.78 560.85 350.74 558.13 359.72 554.09 369.4 548.84 379.71 543.74 390.02 538 400.49 531.88 411.03 526.3 421.66 520.48 432.47 514.58 443.43 509.3 454.59 503.88 466.03 498.33 477.64 493.3 489.48 487.96 501.47 482.29 513.36 476.93 525.2 471.05 536.61 464.62 547.12 458.31 556.91 451.33 565.2 443.67 571.47 436.03 576.26 427.66 578.53 418.61 578.02 409.54 575.88 399.78 571.13 389.42 564.01 379.06 556.21 368.61 547.38 358.25 538.21 347.93 529.82 337.74 521.81 327.86 514.46 318.07 508.52 308.64 503.23 299.74 498.49 291 494.89 282.86 491.37 275.48 487.69 268.33 484.55 262.01 480.78 256.66 476.2 251.58 471.72 247.53 466.2 244.61 459.61 241.97 452.96 240.47 445.2 240.2 436.41 240.13 427.56 241.25 417.72 243.61 406.98 246.04 396.24 249.5 385.13 253.82 373.85 258.05 362.6 263.07 351.18 268.75 339.78 274.23 328.44 280.35 317.19 286.98 306.25 293.38 295.53 300.33 285.3 307.74 275.85 314.94 266.9 322.66 259 330.85 252.48 338.88 246.76 347.44 242.62 356.49 240.29 365.44 238.83 374.95 239.11 384.97 241.14 394.95 243.6 405.49 247.38 416.54 252.25" stroke-dasharray="5 11" transform="rotate(48.48, 400, 400)" opacity="0.83"></path><path d="M418.97 263.38C429.29 267.63 439.57 272.21 449.68 276.87 459.79 280.68 469.7 284.46 479.27 288.15 488.78 290.98 497.86 293.9 506.34 297 514.65 299.51 522.23 302.49 528.88 306.03 535.22 309.32 540.51 313.38 544.58 318.24 548.22 323.06 550.55 328.77 551.47 335.33 551.98 341.91 551.11 349.34 548.86 357.53 546.39 365.73 542.72 374.67 537.94 384.31 533.28 393.95 528 403.86 522.32 413.94 517.07 424.07 511.54 434.46 505.86 445.02 500.7 455.71 495.37 466.63 489.88 477.65 484.84 488.78 479.51 499.93 473.9 510.82 468.57 521.55 462.79 531.7 456.56 540.89 450.45 549.36 443.78 556.37 436.54 561.49 429.33 565.33 421.49 566.93 413.07 566.09 404.64 563.9 395.62 559.43 386.08 552.87 376.54 545.74 366.95 537.63 357.46 529.1 348.01 521.18 338.71 513.43 329.7 506.14 320.78 500 312.22 494.35 304.16 489.16 296.24 484.97 288.89 480.91 282.26 476.78 275.82 473.21 270.15 469.2 265.39 464.58 260.86 460.15 257.28 454.88 254.74 448.71 252.43 442.55 251.17 435.42 251.04 427.35 251.09 419.26 252.23 410.24 254.51 400.37 256.86 390.49 260.16 380.25 264.27 369.84 268.31 359.46 273.1 348.93 278.51 338.46 283.76 328.09 289.6 317.85 295.94 307.97 302.09 298.34 308.75 289.25 315.84 280.96 322.76 273.15 330.15 266.37 337.97 260.89 345.65 256.11 353.81 252.78 362.4 251.07 370.91 250.08 379.91 250.64 389.35 252.73 398.76 255.16 408.65 258.77 418.97 263.38" stroke-dasharray="3 11" transform="rotate(52.52, 400, 400)" opacity="0.41"></path><path d="M420.81 274.52C430.37 278.54 439.84 282.91 449.1 287.41 458.36 291.2 467.37 295.02 476.01 298.8 484.59 301.83 492.73 304.96 500.25 308.23 507.63 310.96 514.3 314.05 520.1 317.59 527.92 322.79 537.76 336.39 539.43 345.02 539.81 351 538.97 357.77 536.91 365.29 534.67 372.8 531.36 381.06 527.04 390.04 522.82 399.02 517.99 408.31 512.75 417.83 507.85 427.38 502.64 437.2 497.23 447.18 492.25 457.23 487.06 467.46 481.7 477.69 476.72 487.92 471.47 498.06 465.96 507.83 460.7 517.35 455.07 526.23 449.06 534.1 443.17 541.29 436.8 547.09 429.96 551.18 423.17 554.17 415.85 555.2 408.04 554.11 400.23 551.91 391.93 547.74 383.18 541.74 374.43 535.25 365.68 527.85 357.05 519.99 348.45 512.57 340.02 505.18 331.88 498.07 323.82 491.86 316.1 486 308.86 480.5 301.75 475.85 295.17 471.33 289.26 466.81 283.52 462.82 278.49 458.54 274.29 453.82 270.29 449.32 267.15 444.17 264.96 438.31 262.97 432.5 261.93 425.88 261.93 418.45 262.07 411.01 263.22 402.75 265.41 393.73 267.66 384.7 270.8 375.36 274.68 365.87 278.52 356.42 283.05 346.87 288.16 337.42 293.15 328.08 298.7 318.94 304.71 310.19 310.58 301.7 316.92 293.77 323.66 286.64 330.26 279.96 337.3 274.26 344.72 269.75 352.02 265.84 359.75 263.25 367.86 262.08 375.9 261.49 384.37 262.26 393.21 264.38 402.02 266.75 411.24 270.18 420.81 274.52" stroke-dasharray="4 6" transform="rotate(56.56, 400, 400)" opacity="0.59"></path><path d="M421.99 285.65C430.78 289.43 439.43 293.57 447.84 297.88 456.23 301.6 464.35 305.41 472.08 309.24 479.75 312.42 486.96 315.71 493.59 319.13 500.08 322.05 505.91 325.28 510.92 328.86 517.68 334.05 526.03 346.99 527.37 355 527.64 360.51 526.85 366.73 524.98 373.65 522.98 380.55 520.02 388.16 516.14 396.47 512.34 404.78 507.96 413.42 503.16 422.28 498.63 431.16 493.77 440.28 488.68 449.52 483.93 458.78 478.94 468.14 473.78 477.42 468.91 486.64 463.8 495.66 458.46 504.23 453.33 512.5 447.88 520.09 442.12 526.7 436.46 532.68 430.42 537.38 424 540.55 417.61 542.8 410.8 543.35 403.59 542.07 396.39 539.91 388.77 536.06 380.8 530.6 372.83 524.75 364.9 518.04 357.11 510.87 349.35 504 341.76 497.03 334.47 490.2 327.24 484.06 320.35 478.14 313.92 472.47 307.58 467.51 301.75 462.65 296.54 457.82 291.46 453.48 287.04 448.94 283.37 444.1 279.87 439.5 277.15 434.41 275.29 428.78 273.59 423.22 272.76 417.01 272.86 410.14 273.09 403.28 274.22 395.73 276.31 387.54 278.46 379.34 281.41 370.9 285.05 362.38 288.65 353.89 292.91 345.37 297.7 337 302.41 328.74 307.63 320.72 313.3 313.13 318.84 305.79 324.83 299.02 331.19 293.01 337.44 287.4 344.08 282.7 351.07 279.09 357.96 275.97 365.24 274.02 372.83 273.32 380.37 273.06 388.27 273.99 396.48 276.1 404.67 278.38 413.2 281.6 421.99 285.65" stroke-dasharray="4 1" transform="rotate(60.599999999999994, 400, 400)" opacity="0.96"></path><path d="M422.48 296.79C430.48 300.3 438.3 304.19 445.85 308.28 453.39 311.89 460.64 315.63 467.48 319.43 474.27 322.71 480.61 326.11 486.38 329.63 494.56 334.39 507.18 344.92 511.31 351.03 514.23 357.42 515.12 372.94 513.08 382.19 511.31 388.54 508.69 395.54 505.23 403.17 501.85 410.8 497.9 418.72 493.56 426.84 489.41 434.96 484.92 443.27 480.19 451.64 475.71 460 470.99 468.37 466.08 476.59 461.41 484.7 456.5 492.53 451.39 499.87 446.45 506.91 441.23 513.26 435.75 518.67 430.38 523.53 424.68 527.25 418.68 529.6 412.72 531.23 406.41 531.39 399.79 529.99 393.19 527.91 386.25 524.38 379.03 519.47 371.82 514.23 364.68 508.21 357.71 501.72 350.75 495.43 343.99 488.96 337.52 482.51 331.1 476.57 325 470.73 319.34 465.05 313.76 459.93 308.64 454.87 304.09 449.86 297.73 442.89 288.44 428.38 285.73 420.41 284.3 415.06 283.65 409.2 283.84 402.85 284.13 396.51 285.24 389.63 287.21 382.24 289.23 374.84 291.99 367.31 295.37 359.75 298.73 352.24 302.69 344.76 307.14 337.48 311.53 330.3 316.41 323.41 321.69 316.97 326.88 310.74 332.48 305.07 338.42 300.13 344.27 295.51 350.49 291.73 357 288.92 363.44 286.5 370.22 285.09 377.26 284.77 384.27 284.78 391.58 285.82 399.13 287.87 406.67 290.04 414.48 293.03 422.48 296.79" stroke-dasharray="3 3" transform="rotate(64.64, 400, 400)" opacity="0.61"></path><path d="M422.27 307.92C429.46 311.16 436.45 314.77 443.16 318.6 449.85 322.05 456.23 325.67 462.22 329.39 468.17 332.69 473.67 336.13 478.66 339.69 485.71 344.6 496.46 355.23 499.92 361.21 502.37 367.38 503.03 381.95 501.22 390.47 499.68 396.31 497.38 402.7 494.33 409.63 491.34 416.56 487.84 423.73 483.94 431.02 480.19 438.32 476.1 445.73 471.75 453.14 467.6 460.51 463.19 467.83 458.59 474.92 454.18 481.89 449.54 488.53 444.71 494.65 440.02 500.5 435.09 505.68 429.95 509.99 422.23 515.27 405.6 519.4 396.68 517.88 390.66 515.91 384.39 512.71 377.92 508.33 371.44 503.7 365.08 498.36 358.89 492.55 352.72 486.87 346.76 480.95 341.08 474.97 335.43 469.34 330.1 463.72 325.18 458.18 320.31 453.05 315.87 447.96 311.95 442.89 306.46 435.75 298.54 421.18 296.28 413.45 295.1 408.29 294.61 402.78 294.87 396.91 295.2 391.06 296.27 384.82 298.12 378.21 300 371.6 302.54 364.94 305.65 358.35 308.74 351.79 312.38 345.33 316.48 339.12 320.53 333 325.02 327.19 329.89 321.83 334.69 316.65 339.87 312.01 345.35 308.04 350.77 304.32 356.51 301.35 362.51 299.24 368.46 297.41 374.7 296.46 381.16 296.44 387.59 296.65 394.27 297.74 401.14 299.7 408 301.73 415.07 304.48 422.27 307.92" stroke-dasharray="4 9" transform="rotate(68.68, 400, 400)" opacity="0.53"></path><path d="M421.35 319.05C434.12 324.74 445.97 331.66 456.36 339.1 466.6 345.25 475.13 352.09 481.38 359.56 487.24 366.18 490.63 374.06 491.14 383.28 491.3 392.24 488.75 402.97 483.43 415.4 478.29 427.83 471.34 440.87 463.35 453.69 455.93 466.34 447.48 478.33 438.4 488.5 429.76 497.72 420.21 504.2 410.02 506.86 399.95 507.8 389 504.61 377.5 497.2 366 488.98 355.05 478.62 345.17 467.53 335.39 457.4 326.86 447.05 320.11 436.88 313.62 427.71 309.07 418.11 306.93 408.04 305.08 398.27 305.66 387.44 309.02 375.74 312.49 364.03 318.26 352.56 325.71 342.09 333.03 331.9 341.97 323.18 351.97 316.75 361.81 311.08 372.81 308.1 384.5 308.3 396.13 309.12 408.58 312.75 421.35 319.05" stroke-dasharray="2 7" transform="rotate(72.72, 400, 400)" opacity="0.37"></path><path d="M419.77 330.19C430.9 335.31 441.1 341.64 449.93 348.56 458.65 354.53 465.83 361.2 471.01 368.41 475.92 374.96 478.72 382.52 479.1 391.08 479.23 399.41 477.08 409.12 472.53 420.07 468.11 431.02 462.05 442.23 454.98 453 448.31 463.6 440.66 473.36 432.43 481.38 424.52 488.62 415.83 493.46 406.65 495.1 397.59 495.5 387.85 492.52 377.78 486.07 367.72 479 358.26 470 349.82 460.18 341.46 450.96 334.23 441.32 328.6 431.73 323.14 422.85 319.38 413.64 317.71 404.22 316.24 395.05 316.87 385.23 319.92 375 323.05 364.77 328.21 355.08 334.84 346.5 341.39 338.11 349.38 331.16 358.3 326.27 367.13 321.88 376.95 319.8 387.32 320.35 397.66 321.28 408.64 324.59 419.77 330.19" stroke-dasharray="5 5" transform="rotate(76.76, 400, 400)" opacity="0.12"></path><path d="M417.57 341.32C427.06 345.84 435.66 351.49 443.02 357.76 450.3 363.38 456.23 369.68 460.46 376.45 464.51 382.74 466.8 389.83 467.08 397.63 467.22 405.25 465.44 413.87 461.63 423.3 457.92 432.73 452.73 442.11 446.63 450.88 440.79 459.5 434.03 467.19 426.75 473.28 419.69 478.79 411.97 482.26 403.89 483.12 395.9 483.13 387.42 480.44 378.77 474.93 370.11 468.98 362.09 461.34 355.03 452.87 348 444.74 342.01 436.07 337.4 427.34 332.9 419.07 329.86 410.54 328.6 401.97 327.46 393.57 328.12 384.84 330.82 376.06 333.59 367.27 338.1 359.24 343.86 352.34 349.6 345.57 356.57 340.16 364.35 336.53 372.08 333.21 380.64 331.81 389.63 332.57 398.61 333.52 408.07 336.45 417.57 341.32" stroke-dasharray="4 3" transform="rotate(80.80000000000001, 400, 400)" opacity="0.78"></path><path d="M414.81 352.46C422.67 356.32 429.72 361.22 435.69 366.72 441.62 371.8 446.39 377.52 449.78 383.65 453.05 389.47 454.89 395.89 455.11 402.78 455.25 409.56 453.83 416.99 450.73 424.87 447.69 432.74 443.4 440.32 438.28 447.2 433.32 453.96 427.56 459.8 421.32 464.23 415.22 468.27 408.58 470.64 401.68 470.94 394.84 470.71 387.65 468.36 380.42 463.8 373.18 458.93 366.55 452.64 360.79 445.57 355.04 438.67 350.2 431.18 346.52 423.57 342.91 416.22 340.52 408.64 339.6 401.11 338.75 393.7 339.39 386.17 341.72 378.82 344.1 371.47 347.92 364.97 352.8 359.56 357.66 354.22 363.57 350.1 370.14 347.48 376.69 345.01 383.93 344.11 391.49 344.93 399.04 345.84 406.94 348.33 414.81 352.46" stroke-dasharray="1 7" transform="rotate(84.84, 400, 400)" opacity="0.50"></path><path d="M411.59 363.59C424.07 369.71 433.73 379.29 439.02 390.01 444.08 399.99 444.68 412.05 439.83 424.65 435.13 437.25 426.38 447.96 416.09 454.31 406.13 459.73 394.33 459.65 382.68 452.66 371.03 444.92 361.61 432.95 355.94 420.26 350.4 408.08 348.82 394.95 352.62 383.1 356.55 371.26 365.07 362.78 375.7 359 386.31 355.47 399.1 356.81 411.59 363.59" stroke-dasharray="1 1" transform="rotate(88.88, 400, 400)" opacity="0.80"></path><path d="M408 374.72C417.29 379.49 424.38 387.06 428.23 395.56 431.98 403.7 432.48 413.25 428.93 422.67 425.47 432.09 418.86 439.56 411.02 443.6 403.34 447.18 394.28 446.79 385.49 441.53 376.69 435.85 369.73 426.9 365.65 417.23 361.62 407.76 360.57 397.55 363.52 388.59 366.55 379.63 373.02 373.52 381.05 370.97 389.09 368.49 398.71 369.58 408 374.72" stroke-dasharray="11 10" transform="rotate(92.92, 400, 400)" opacity="0.92"></path><path d="M404.17 385.86C416.44 392.19 422.65 406.56 418.03 419.07 413.55 431.57 400.58 437.16 388.75 430.4 376.92 422.89 370.4 406.96 374.42 394.9 378.59 382.83 391.88 378.83 404.17 385.86" stroke-dasharray="9 8" transform="rotate(96.96, 400, 400)" opacity="0.66"></path></g></svg>