<svg xmlns="http://www.w3.org/2000/svg" viewBox="0 0 800 800" xmlns:v="https://vecta.io/nano"><defs><linearGradient x1="50%" y1="0%" x2="50%" y2="100%" id="A"><stop stop-color="#1f89db" offset="0%"/><stop stop-color="#f42a8b" offset="100%"/></linearGradient></defs><g stroke="url(#A)" fill="none" stroke-linecap="round" stroke-width="2"><path d="M378.3 118.64c9.36 3.08 18.66 6.21 27.88 9.22 9.24 2.35 18.41 4.43 27.51 6.24 9.14 1.06 18.23 1.92 27.28 2.66 9.12.23 18.23.57 27.34 1.14 9.22.45 18.47 1.4 27.76 2.94 9.44 1.79 18.94 4.35 28.51 7.71 9.73 3.83 19.53 8.52 29.36 14.05 9.98 6.02 19.96 12.83 29.89 20.32 9.99 7.9 19.84 16.39 29.46 25.35 9.53 9.22 18.7 18.8 27.39 28.64 8.38 9.96 16.12 20.1 23.07 30.35 6.44 10.27 11.93 20.59 16.38 30.94 3.74 10.32 6.34 20.65 7.71 30.96.63 10.28.05 20.56-1.74 30.82-2.4 10.24-5.86 20.49-10.29 30.72-4.72 10.23-10.16 20.45-16.16 30.64-5.84 10.18-11.79 20.09-17.7 29.67-5.35 9.57-10.45 18.78-15.2 27.59-4 8.74-7.59 17.03-10.78 24.81-2.41 7.67-4.5 14.77-6.32 21.26-1.74 9.19-4.48 24.17-6.03 30.06-1.69 5.4-7.48 14.89-11.9 19.74-3.32 3.91-7.3 8.19-11.94 12.99-4.86 5.78-10.37 12.31-16.48 19.64-6.32 8.4-13.22 17.58-20.63 27.43-7.58 10.56-15.63 21.43-24.09 32.3-8.56 10.78-17.49 20.91-26.73 29.97-9.29 7.96-18.85 14.21-28.63 18.4-9.8 2.4-19.79 2.47-29.94.16-10.15-4-20.44-10.02-30.84-17.74-10.4-8.4-20.67-17.37-30.78-26.4-10.12-8.28-20.09-15.8-29.91-22.26-9.83-4.84-19.52-8.35-29.05-10.54-9.56-.56-18.97-.09-28.22 1.13-9.29 2.22-18.44 4.61-27.41 6.85-9.01 2.38-17.86 4.05-26.52 4.8-8.69.19-17.18-.85-25.44-3.17-8.27-3.18-16.29-7.69-24.04-13.42-7.71-6.55-15.12-14.16-22.18-22.68-6.99-9.1-13.6-18.88-19.8-29.15a433.56 433.56 0 0 1-16.86-32.54c-5-11.15-9.5-22.35-13.46-33.5-3.8-11.13-7.05-22.16-9.73-33.04-2.52-10.82-4.48-21.49-5.86-31.98-1.24-10.44-1.91-20.72-2.01-30.82-.01-10.08.53-20 1.63-29.74 1.13-9.74 2.75-19.09 4.82-28.04 2.04-8.97 4.49-17.55 7.31-25.74 2.74-8.21 5.82-16.03 9.22-23.47 3.25-7.48 6.81-14.6 10.64-21.37 3.66-6.85 7.59-13.4 11.77-19.68 4.01-6.43 8.27-12.67 12.78-18.75 4.36-6.35 8.98-12.63 13.86-18.9 4.76-6.64 9.8-13.34 15.11-20.14 5.24-7.22 10.78-14.57 16.61-22.03a621.18 621.18 0 0 1 18.31-23.53c6.4-8 13.12-15.81 20.13-23.29 7.03-7.33 14.35-14.09 21.96-20.14 7.62-5.55 15.52-10.18 23.68-13.77a95.712 95.712 0 0 1 25.2-5.25c8.63.03 17.48 1.08 26.5 3.07 9.03 2.26 18.23 5.15 27.59 8.51" stroke-dasharray="0 1" opacity=".2"/><path d="M398.779 129.01c8.792 3.69 17.55 7.426 26.276 11.06a539.66 539.66 0 0 0 26.3 8.303c8.834 1.817 17.663 3.423 26.492 4.888 8.924.962 17.865 1.984 26.793 3.176 9.05 1.03 18.11 2.482 27.165 4.425a204.778 204.778 0 0 1 27.523 8.46c9.266 3.932 18.525 8.667 27.72 14.178 9.262 5.967 18.432 12.69 27.462 20.095a387.897 387.897 0 0 1 26.268 25.083 403.204 403.204 0 0 1 23.62 28.515c7.057 9.952 13.448 20.087 19.062 30.318 5.119 10.266 9.324 20.568 12.528 30.84 2.575 10.236 4.06 20.426 4.42 30.517a136.048 136.048 0 0 1-4.22 29.816c-3.048 9.79-7.07 19.47-11.985 29.028-5.156 9.55-10.976 18.994-17.328 28.31-6.201 9.316-12.52 18.293-18.792 26.913-5.772 8.624-11.327 16.873-16.573 24.713a1101.405 1101.405 0 0 0-12.56 22.12c-3.09 6.86-5.864 13.2-8.358 18.989-2.773 8.315-7.31 22.16-9.555 27.836-2.261 5.474-8.744 15.793-13.305 21.315-3.397 4.382-7.413 9.15-12.064 14.396-4.885 6.151-10.427 12.928-16.576 20.373a1529.362 1529.362 0 0 1-20.907 26.603c-7.705 9.882-15.878 19.85-24.457 29.62-8.674 9.543-17.655 18.322-26.886 25.961-9.215 6.557-18.6 11.418-28.09 14.337-9.392 1.261-18.862.362-28.348-2.724-9.399-4.614-18.826-11.084-28.283-19.13-9.414-8.655-18.687-17.872-27.825-27.168-9.201-8.68-18.318-16.713-27.369-23.838-9.162-5.69-18.286-10.204-27.355-13.52-9.196-1.803-18.33-2.629-27.37-2.676-9.14.959-18.16 2.196-27.02 3.445-8.898 1.517-17.602 2.536-26.075 2.85-8.458-.036-16.644-1.095-24.531-3.256-7.83-2.849-15.325-6.867-22.47-12.013-7.054-5.872-13.725-12.769-19.992-20.55-6.137-8.343-11.864-17.399-17.14-27.004-5.132-9.947-9.797-20.26-13.984-30.812a383.814 383.814 0 0 1-10.55-32.304c-2.844-10.827-5.161-21.597-6.937-32.228-1.617-10.6-2.694-21.042-3.223-31.295-.401-10.214-.265-20.24.407-30.036a259.21 259.21 0 0 1 3.863-28.72c1.844-9.353 4.119-18.285 6.814-26.786a238.28 238.28 0 0 1 9.027-24.334 234.585 234.585 0 0 1 10.694-22.112 238.44 238.44 0 0 1 11.922-20.19 268.367 268.367 0 0 1 12.898-18.818 337.508 337.508 0 0 1 13.808-18.223c4.701-6.234 9.65-12.42 14.828-18.601a649.028 649.028 0 0 1 16.066-19.818 708.493 708.493 0 0 1 17.516-21.328 545.357 545.357 0 0 1 19.13-22.188c6.648-7.39 13.566-14.5 20.746-21.2 7.155-6.493 14.557-12.366 22.187-17.491 7.585-4.617 15.383-8.297 23.36-10.952a90.444 90.444 0 0 1 24.29-2.685c8.204.79 16.562 2.543 25.056 5.198 8.478 2.885 17.103 6.37 25.877 10.319" stroke-dasharray="7 1" opacity=".37"/><path d="M418.318 140.913c8.2 4.214 16.4 8.489 24.58 12.69a560.685 560.685 0 0 0 24.922 10.215 668.064 668.064 0 0 0 25.478 7.01c8.64 1.672 17.317 3.378 25.986 5.205a323.092 323.092 0 0 1 26.325 5.949 216.448 216.448 0 0 1 26.37 9.268c8.78 4.034 17.457 8.791 26.004 14.257 8.548 5.88 16.916 12.461 25.051 19.686a311.147 311.147 0 0 1 23.18 24.41 323.146 323.146 0 0 1 20.022 27.79c5.801 9.723 10.92 19.62 15.271 29.601 3.87 10.024 6.88 20.056 8.927 30.033 1.478 9.936 1.96 19.782 1.392 29.468a138.17 138.17 0 0 1-6.472 28.372c-3.62 9.213-8.135 18.248-13.44 27.08-5.523 8.811-11.657 17.445-18.267 25.87-6.48 8.442-13.06 16.507-19.592 24.175a2199.284 2199.284 0 0 1-17.624 21.971 2641.797 2641.797 0 0 0-13.973 19.601 2839.872 2839.872 0 0 0-10.077 16.982c-3.683 7.588-9.9 20.644-12.872 26.282-2.908 5.688-10.371 16.99-15.28 23.182-3.615 4.83-7.805 10.013-12.603 15.634-5.05 6.404-10.718 13.316-17.004 20.746a823.016 823.016 0 0 1-21.268 25.443c-7.807 9.103-16.055 18.113-24.676 26.758-8.663 8.304-17.579 15.755-26.68 22.028-9.002 5.207-18.077 8.797-27.161 10.537-8.893.243-17.753-1.52-26.53-5.291-8.596-5.12-17.14-11.948-25.643-20.215-8.423-8.832-16.708-18.2-24.876-27.682-8.243-8.957-16.477-17.408-24.7-25.08-8.41-6.426-16.858-11.807-25.344-16.133-8.683-2.94-17.386-4.962-26.064-6.225-8.83-.264-17.58-.173-26.186.04-8.681.606-17.155.888-25.366.671-8.196-.396-16.074-1.605-23.6-3.724-7.435-2.63-14.47-6.286-21.095-10.923-6.484-5.264-12.523-11.464-18.11-18.5-5.421-7.556-10.378-15.825-14.852-24.652-4.301-9.185-8.121-18.778-11.436-28.651a323.355 323.355 0 0 1-7.907-30.535 322.278 322.278 0 0 1-4.332-30.815c-.775-10.19-1.036-20.236-.777-30.098.386-9.833 1.278-19.463 2.684-28.869a250.49 250.49 0 0 1 5.919-27.46c2.497-8.908 5.377-17.388 8.63-25.43a236.667 236.667 0 0 1 10.596-22.989 241.65 241.65 0 0 1 12.052-20.863 258.281 258.281 0 0 1 13.124-19.166 301.754 301.754 0 0 1 14-18.081 390.203 390.203 0 0 1 14.864-17.758 534.886 534.886 0 0 1 15.863-18.251 694.997 694.997 0 0 1 17.054-19.315 653.401 653.401 0 0 1 18.46-20.388 476.155 476.155 0 0 1 19.893-20.608c6.85-6.704 13.924-13.063 21.215-18.956 7.233-5.63 14.646-10.607 22.222-14.804 7.493-3.693 15.129-6.468 22.863-8.228 7.646-1.137 15.387-1.24 23.221-.29 7.74 1.473 15.592 3.86 23.526 7.098 7.904 3.445 15.93 7.453 24.105 11.916" stroke-dasharray="10 3" opacity=".95"/><path d="M436.731 154.275c7.595 4.689 15.187 9.439 22.801 14.132a587.323 587.323 0 0 0 23.393 11.948c8.012 3.173 16.086 6.155 24.21 9.004 8.278 2.36 16.588 4.718 24.911 7.16 8.446 2.202 16.865 4.675 25.241 7.486a229.267 229.267 0 0 1 25.037 10.102 208.434 208.434 0 0 1 24.222 14.325c7.839 5.744 15.416 12.137 22.696 19.101a257.166 257.166 0 0 1 20.243 23.422 259.17 259.17 0 0 1 16.673 26.573c4.64 9.302 8.592 18.763 11.803 28.29 2.74 9.578 4.645 19.141 5.666 28.627.498 9.445.072 18.763-1.307 27.897-1.893 9.055-4.715 17.91-8.424 26.513-4.116 8.546-9.012 16.863-14.639 24.921-5.803 8.02-12.153 15.822-18.947 23.363a505.411 505.411 0 0 1-20.138 21.522 1151.911 1151.911 0 0 1-18.37 19.385A6121.807 6121.807 0 0 1 586.7 515.36a9290.304 9290.304 0 0 1-11.528 15.25c-4.515 7.018-12.376 19.526-16.109 25.24-3.65 5.946-12.385 18.236-17.822 25.026-3.935 5.179-8.42 10.68-13.475 16.55-5.297 6.523-11.191 13.44-17.653 20.715a610.374 610.374 0 0 1-21.656 23.926c-7.868 8.252-16.132 16.255-24.698 23.754-8.56 7.09-17.308 13.251-26.15 18.226-8.674 3.957-17.341 6.36-25.916 7.045-8.313-.68-16.5-3.185-24.517-7.525-7.773-5.525-15.416-12.608-22.978-21.023-7.447-8.902-14.74-18.333-21.937-27.918-7.295-9.135-14.603-17.874-21.955-25.979-7.585-7.019-15.28-13.151-23.063-18.341a151.482 151.482 0 0 0-24.346-9.463c-8.367-1.428-16.708-2.452-24.934-3.247-8.323-.345-16.46-.845-24.352-1.67-7.853-.868-15.391-2.344-22.55-4.536a87.006 87.006 0 0 1-19.813-10.187c-5.99-4.733-11.493-10.303-16.503-16.646-4.812-6.792-9.121-14.253-12.913-22.267-3.587-8.35-6.673-17.123-9.242-26.215a262.272 262.272 0 0 1-5.595-28.337 278.905 278.905 0 0 1-2.023-28.919c-.021-9.619.455-19.12 1.436-28.453 1.098-9.306 2.671-18.44 4.727-27.347a245.685 245.685 0 0 1 7.785-25.964c3.087-8.42 6.52-16.407 10.273-23.977a239.523 239.523 0 0 1 12.021-21.639 253.419 253.419 0 0 1 13.302-19.696 286.391 286.391 0 0 1 14.286-18.227 337.535 337.535 0 0 1 15.109-17.395 442.37 442.37 0 0 1 15.939-17.258 597.896 597.896 0 0 1 16.922-17.743 665.347 665.347 0 0 1 18.074-18.58 591.242 591.242 0 0 1 19.34-19.186c6.636-6.471 13.5-12.76 20.563-18.792 6.998-5.963 14.177-11.53 21.52-16.571 7.239-4.756 14.609-8.83 22.065-12.117 7.332-2.803 14.733-4.691 22.172-5.61 7.307-.354 14.647.282 22.02 1.906 7.254 2.09 14.565 5.05 21.922 8.799 7.312 3.912 14.737 8.39 22.273 13.303" stroke-dasharray="7 6" opacity=".9"/><path d="M453.829 169.036c6.964 5.069 13.945 10.225 20.956 15.349a616.276 616.276 0 0 0 21.705 13.484 629.903 629.903 0 0 0 22.723 10.832c7.825 2.996 15.694 5.984 23.565 9.004 8.006 2.768 15.985 5.736 23.896 8.976a245.922 245.922 0 0 1 23.515 10.937 202.496 202.496 0 0 1 22.366 14.362 200.898 200.898 0 0 1 20.401 18.416 212.75 212.75 0 0 1 17.519 22.182 211.266 211.266 0 0 1 13.632 24.992c3.604 8.727 6.522 17.59 8.706 26.51 1.755 8.963 2.708 17.89 2.831 26.734-.353 8.8-1.547 17.449-3.617 25.886-2.517 8.36-5.874 16.497-10.027 24.362-4.498 7.796-9.699 15.326-15.557 22.572-5.995 7.217-12.488 14.175-19.372 20.863a448.46 448.46 0 0 1-20.438 18.971 860.294 860.294 0 0 1-18.867 17.001 2006.11 2006.11 0 0 1-15.988 15.294c-4.543 4.9-8.81 9.493-12.82 13.776-5.289 6.537-14.769 18.7-19.316 24.513-4.473 6.2-14.703 19.3-20.796 26.53-4.36 5.42-9.221 11.092-14.612 17.047-5.6 6.498-11.753 13.253-18.426 20.22a486.285 486.285 0 0 1-22.001 22.07c-7.874 7.338-16.066 14.303-24.5 20.667-8.359 5.886-16.838 10.822-25.319 14.58-8.259 2.812-16.424 4.152-24.416 3.887-7.673-1.473-15.134-4.614-22.366-9.406-6.941-5.832-13.701-13.08-20.326-21.549-6.487-8.907-12.82-18.311-19.061-27.887-6.333-9.227-12.713-18.145-19.158-26.55-6.722-7.487-13.58-14.212-20.586-20.146a158.916 158.916 0 0 0-22.275-12.306c-7.774-2.492-15.549-4.547-23.266-6.336-7.846-1.274-15.537-2.576-22.986-4.068-7.448-1.388-14.579-3.225-21.325-5.596-6.641-2.591-12.838-5.855-18.553-9.811-5.536-4.322-10.572-9.363-15.08-15.073-4.29-6.074-8.055-12.767-11.276-19.978-3-7.501-5.47-15.432-7.412-23.678a210.055 210.055 0 0 1-3.655-25.87c-.52-8.875-.539-17.793-.056-26.68a239.479 239.479 0 0 1 3.349-26.432c1.712-8.676 3.88-17.2 6.52-25.523a235.329 235.329 0 0 1 9.42-24.278 236.95 236.95 0 0 1 11.734-22.42 248.416 248.416 0 0 1 13.3-20.28 272.072 272.072 0 0 1 14.48-18.532c4.945-6 10.08-11.759 15.386-17.312a384.06 384.06 0 0 1 16.19-16.673 501.041 501.041 0 0 1 17.018-16.62 649.217 649.217 0 0 1 17.97-17.031 670.596 670.596 0 0 1 19.041-17.565 539.483 539.483 0 0 1 20.13-17.696c6.848-5.845 13.876-11.45 21.062-16.74 7.092-5.18 14.313-9.908 21.622-14.078 7.182-3.874 14.433-7.052 21.7-9.454 7.11-1.938 14.226-3 21.313-3.132 6.927.383 13.837 1.688 20.708 3.918 6.75 2.643 13.499 6.088 20.26 10.275 6.72 4.331 13.525 9.198 20.428 14.478" stroke-dasharray="8 9" opacity=".99"/><path d="M469.4 185.053c6.325 5.396 12.657 10.89 19.041 16.361a646.23 646.23 0 0 0 19.893 14.8 651.18 651.18 0 0 0 21.032 12.458c7.284 3.575 14.619 7.126 21.96 10.69 7.482 3.296 14.93 6.74 22.298 10.378a271.328 271.328 0 0 1 21.813 11.723 200.635 200.635 0 0 1 20.45 14.386 183.5 183.5 0 0 1 18.17 17.66 178.996 178.996 0 0 1 15.004 20.79 172.128 172.128 0 0 1 10.948 23.155c2.698 8.046 4.724 16.208 6.035 24.404.908 8.22 1.06 16.406.444 24.48a121.398 121.398 0 0 1-5.506 23.568c-3.012 7.576-6.778 14.917-11.26 21.973-4.768 6.994-10.183 13.718-16.158 20.14-6.104 6.395-12.655 12.53-19.562 18.386a408.806 408.806 0 0 1-20.521 16.563 681.503 681.503 0 0 1-19.168 14.823 1463.441 1463.441 0 0 1-16.696 13.495c-4.895 4.41-9.55 8.58-13.975 12.525-6.02 6.139-17.117 17.996-22.525 23.891a337.638 337.638 0 0 1-11.124 12.828c-3.961 4.744-8.265 9.607-12.947 14.63-4.824 5.492-10.111 11.175-15.854 17.054a488.83 488.83 0 0 1-19.222 19.257 409.242 409.242 0 0 1-22.219 19.902c-7.815 6.384-15.868 12.286-24.072 17.526-8.084 4.74-16.199 8.52-24.234 11.158-7.764 1.758-15.357 2.15-22.704 1.066-6.99-2.145-13.71-5.8-20.148-10.95-6.11-6.042-12.003-13.367-17.704-21.794-5.565-8.824-10.958-18.118-16.259-27.602-5.392-9.208-10.845-18.194-16.38-26.783-5.82-7.81-11.806-15-17.955-21.513a169.513 169.513 0 0 0-19.912-14.721c-7.057-3.438-14.165-6.448-21.241-9.137-7.239-2.162-14.362-4.261-21.272-6.42-6.947-1.97-13.594-4.234-19.872-6.864-6.19-2.725-11.956-5.965-17.237-9.74a82.027 82.027 0 0 1-13.754-13.82c-3.84-5.462-7.136-11.448-9.876-17.901-2.524-6.694-4.498-13.781-5.918-21.187-1.226-7.558-1.907-15.352-2.076-23.29.019-8.016.537-16.115 1.556-24.211a212.022 212.022 0 0 1 4.92-24.178 218.116 218.116 0 0 1 8.016-23.465 226.661 226.661 0 0 1 10.815-22.415 238.67 238.67 0 0 1 12.998-20.759 255.626 255.626 0 0 1 14.438-18.854 288.45 288.45 0 0 1 15.547-17.349 344.826 344.826 0 0 1 16.417-16.325 459.318 459.318 0 0 1 17.224-15.826 566.664 566.664 0 0 1 18.052-15.788 650.963 650.963 0 0 1 18.949-16.054 620.309 620.309 0 0 1 19.894-16.25 497.376 497.376 0 0 1 20.75-15.936c6.994-5.14 14.13-9.995 21.355-14.487 7.11-4.352 14.288-8.222 21.502-11.524 7.055-2.987 14.106-5.295 21.13-6.834 6.826-1.122 13.6-1.4 20.288-.814 6.507 1.051 12.944 2.961 19.3 5.726 6.212 3.127 12.399 6.991 18.567 11.54 6.11 4.679 12.282 9.858 18.535 15.451" stroke-dasharray="2 9" opacity=".11"/><path d="M483.239 202.173c5.677 5.66 11.37 11.404 17.091 17.16a746.893 746.893 0 0 0 17.966 15.876 654.897 654.897 0 0 0 19.155 13.844c6.679 4.093 13.41 8.144 20.135 12.18 6.889 3.772 13.728 7.63 20.475 11.644a288.224 288.224 0 0 1 19.943 12.434c6.433 4.443 12.603 9.227 18.447 14.37a164.75 164.75 0 0 1 16.018 16.864 151.252 151.252 0 0 1 12.708 19.32 138.761 138.761 0 0 1 8.594 21.176c1.94 7.31 3.21 14.693 3.798 22.108a112.25 112.25 0 0 1-1.482 22.023 110.947 110.947 0 0 1-6.942 21.046c-3.375 6.738-7.42 13.24-12.114 19.473-4.946 6.163-10.453 12.062-16.478 17.673-6.12 5.58-12.654 10.907-19.51 15.979a388.665 388.665 0 0 1-20.42 14.319 641.195 641.195 0 0 1-19.31 12.855 1398.746 1398.746 0 0 1-17.263 11.913 4612.661 4612.661 0 0 1-15.019 11.41c-6.712 5.773-19.42 17.29-25.671 23.184a599.15 599.15 0 0 1-12.888 12.962 495.704 495.704 0 0 1-14.552 14.636 488.804 488.804 0 0 1-17.094 16.53 455.277 455.277 0 0 1-19.918 17.834c-7.13 6.068-14.567 11.942-22.264 17.491-7.685 5.401-15.518 10.253-23.415 14.396-7.72 3.653-15.39 6.363-22.915 7.976-7.2.816-14.173.374-20.851-1.405-6.282-2.708-12.252-6.767-17.892-12.168-5.308-6.163-10.353-13.469-15.171-21.79-4.68-8.655-9.177-17.764-13.574-27.07-4.486-9.082-9.021-18.033-13.647-26.685-4.899-7.997-9.984-15.507-15.238-22.446-5.61-6.123-11.4-11.68-17.34-16.68-6.247-4.249-12.575-8.074-18.898-11.568-6.534-2.975-12.987-5.815-19.256-8.626-6.342-2.549-12.423-5.265-18.17-8.214-5.673-2.938-10.954-6.238-15.768-9.94a78.308 78.308 0 0 1-12.456-12.89c-3.437-4.937-6.323-10.316-8.643-16.099-2.122-5.956-3.68-12.262-4.686-18.845-.815-6.717-1.092-13.652-.829-20.739a162.113 162.113 0 0 1 2.817-21.674 182.676 182.676 0 0 1 6.165-21.78c2.626-7.195 5.7-14.289 9.203-21.266a217.19 217.19 0 0 1 11.95-20.402 236.362 236.362 0 0 1 14.03-19.006 266.5 266.5 0 0 1 15.426-17.357 314.13 314.13 0 0 1 16.481-16.07 380.598 380.598 0 0 1 17.357-15.216 470.21 470.21 0 0 1 18.157-14.8 587.875 587.875 0 0 1 18.966-14.721 645.617 645.617 0 0 1 19.783-14.781 581.574 581.574 0 0 1 20.545-14.647c6.938-4.838 13.995-9.502 21.156-13.91 7.064-4.387 14.208-8.441 21.396-12.103 7.046-3.496 14.112-6.5 21.139-8.929 6.847-2.126 13.644-3.584 20.346-4.317 6.485-.348 12.867.09 19.126 1.34 6.047 1.648 11.983 4.102 17.812 7.33 5.67 3.529 11.275 7.741 16.83 12.6 5.514 4.95 11.056 10.374 16.65 16.194" stroke-dasharray="9 5" opacity=".78"/><path d="M495.161 220.206c5.03 5.828 10.068 11.764 15.12 17.718a815.285 815.285 0 0 0 15.96 16.706 710.492 710.492 0 0 0 17.131 14.973 2102.004 2102.004 0 0 0 18.107 13.432c6.211 4.16 12.384 8.389 18.452 12.709 6.147 4.17 12.138 8.506 17.904 13.05 5.77 4.513 11.247 9.276 16.398 14.307a151.93 151.93 0 0 1 13.935 16.06c4.044 5.717 7.597 11.671 10.616 17.838a113.744 113.744 0 0 1 6.576 19.162 102.38 102.38 0 0 1 1.964 19.736 94.918 94.918 0 0 1-2.973 19.477c-1.988 6.334-4.647 12.5-7.962 18.472-3.594 5.88-7.808 11.538-12.606 16.951-5.005 5.336-10.522 10.419-16.514 15.246-6.062 4.79-12.503 9.352-19.25 13.683a379.876 379.876 0 0 1-20.164 12.237 623.25 623.25 0 0 1-19.316 11.08 1402.76 1402.76 0 0 1-17.718 10.477c-5.453 3.55-10.773 7.001-15.957 10.367-4.93 3.616-9.784 7.17-14.601 10.7a2540.771 2540.771 0 0 1-14.076 11.493 883.555 883.555 0 0 1-14.576 12.7 640.946 640.946 0 0 1-16.07 14.166 521.915 521.915 0 0 1-18.204 15.495 432.402 432.402 0 0 1-20.44 16.019c-7.15 5.27-14.53 10.271-22.073 14.877-7.47 4.407-15.002 8.236-22.517 11.335-7.287 2.632-14.457 4.35-21.408 5.05-6.604-.01-12.922-1.161-18.9-3.537-5.575-3.146-10.8-7.513-15.663-13.059-4.517-6.189-8.752-13.407-12.746-21.54-3.828-8.418-7.474-17.261-11.01-26.306-3.614-8.882-7.265-17.694-10.994-26.275-4.005-8.07-8.173-15.752-12.525-22.965-4.694-6.534-9.574-12.577-14.62-18.142-5.365-4.907-10.831-9.416-16.326-13.598-5.737-3.688-11.404-7.191-16.957-10.588-5.647-3.117-11.073-6.286-16.201-9.567-7.477-4.909-20.201-16.126-25.265-22.586-4.283-6.96-9.861-22.702-11.142-31.34-.475-5.933-.426-12.061.16-18.32.753-6.318 2.01-12.728 3.769-19.185 1.884-6.458 4.248-12.92 7.08-19.344a183.477 183.477 0 0 1 10.103-18.99 207.178 207.178 0 0 1 12.794-18.315 237.958 237.958 0 0 1 14.848-17.152 276.298 276.298 0 0 1 16.199-15.756 332.556 332.556 0 0 1 17.262-14.673 416.05 416.05 0 0 1 18.149-13.957 523.347 523.347 0 0 1 18.933-13.558 599.638 599.638 0 0 1 19.689-13.38 602.672 602.672 0 0 1 20.4-13.222 549.845 549.845 0 0 1 20.968-12.782 394.54 394.54 0 0 1 21.275-11.684c7.042-3.57 14.105-6.8 21.16-9.613 6.893-2.639 13.749-4.787 20.52-6.356 6.572-1.302 13.034-1.959 19.36-1.94 6.092.371 12.045 1.462 17.82 3.308 5.572 2.18 10.993 5.085 16.267 8.706 5.119 3.867 10.147 8.367 15.1 13.45 4.901 5.158 9.803 10.758 14.751 16.736" stroke-dasharray="3 7" opacity=".89"/><path d="M505.013 238.896c4.381 5.943 8.748 11.984 13.138 18.063 4.567 5.8 9.2 11.57 13.888 17.27a796.453 796.453 0 0 0 15.001 15.81c5.293 4.84 10.62 9.642 15.93 14.398a985.717 985.717 0 0 1 16.275 13.574 330.562 330.562 0 0 1 15.754 13.516c5.06 4.551 9.848 9.272 14.294 14.18 4.378 4.9 8.364 9.99 11.909 15.273 3.394 5.295 6.308 10.771 8.709 16.384 2.174 5.636 3.801 11.387 4.833 17.2.866 8.712-.898 25.996-3.555 34.386-2.255 5.472-5.13 10.8-8.6 15.93-3.713 5.046-7.98 9.884-12.786 14.488-4.971 4.547-10.417 8.852-16.29 12.935-5.945 4.048-12.234 7.891-18.83 11.528a373.828 373.828 0 0 1-19.767 10.333 643.426 643.426 0 0 1-19.205 9.445 1544.288 1544.288 0 0 1-18.047 9.148c-5.681 3.163-11.267 6.268-16.772 9.34a3191.496 3191.496 0 0 0-15.829 9.925l-15.56 10.865a1400.622 1400.622 0 0 1-16.102 12.023 746.982 746.982 0 0 1-17.382 13.202 547.646 547.646 0 0 1-19.074 13.99 395.261 395.261 0 0 1-20.69 13.867c-7.087 4.414-14.314 8.504-21.617 12.155-7.173 3.426-14.335 6.255-21.392 8.393-6.804 1.683-13.414 2.518-19.759 2.41-5.976-.729-11.625-2.48-16.895-5.317-4.875-3.499-9.373-8.06-13.477-13.674-3.79-6.15-7.254-13.204-10.461-21.079-3.043-8.114-5.885-16.621-8.616-25.342-2.793-8.584-5.606-17.156-8.48-25.576-3.12-8.01-6.398-15.716-9.833-23.06-3.786-6.774-7.742-13.146-11.855-19.12a244.732 244.732 0 0 0-13.61-15.167c-4.86-4.27-9.695-8.335-14.439-12.247-7.223-5.398-20.54-16.071-26.354-21.62-5.29-5.702-13.369-18.315-16.031-25.253-1.889-7.265-2.767-22.861-1.77-31.058.994-5.536 2.477-11.154 4.459-16.81a135.114 135.114 0 0 1 7.734-16.976c3.125-5.631 6.69-11.21 10.697-16.72a197.008 197.008 0 0 1 13.381-16.195 239.762 239.762 0 0 1 15.416-15.24 288.079 288.079 0 0 1 16.767-14.064 352.77 352.77 0 0 1 17.824-13.135 432.418 432.418 0 0 1 18.727-12.505 526.694 526.694 0 0 1 19.48-12.087 593.38 593.38 0 0 1 20.18-11.788 561.664 561.664 0 0 1 20.733-11.413 463.726 463.726 0 0 1 21.074-10.677c6.988-3.377 14.032-6.506 21.08-9.324 6.912-2.751 13.805-5.135 20.638-7.108 6.649-1.793 13.212-3.095 19.64-3.868 9.258-.474 26.583 2.144 34.594 5.343 5.065 2.636 9.951 5.93 14.665 9.87 4.571 4.146 9.014 8.85 13.368 14.09 4.302 5.301 8.586 11.005 12.882 17.084" stroke-dasharray="10 10" opacity=".89"/><path d="M512.639 257.978c3.747 5.975 7.46 12.048 11.172 18.171 3.89 5.882 7.829 11.75 11.817 17.566a877.68 877.68 0 0 0 12.798 16.35c4.547 5.074 9.11 10.11 13.656 15.084 4.739 4.73 9.41 9.448 13.983 14.168 4.683 4.552 9.208 9.15 13.521 13.816 4.341 4.562 8.41 9.221 12.167 13.986 5.36 7.125 13.878 21.902 16.878 29.5 2.212 7.638 3.592 22.984 2.698 30.558-1.829 7.409-8.723 21.53-13.743 28.13-3.722 4.263-7.962 8.319-12.69 12.177-4.866 3.794-10.164 7.381-15.864 10.772-5.755 3.363-11.845 6.542-18.246 9.553-6.345 3.052-12.78 5.89-19.247 8.567a710.469 710.469 0 0 1-18.99 7.95 1825.636 1825.636 0 0 1-18.258 7.866c-5.846 2.762-11.652 5.504-17.422 8.248a3065.838 3065.838 0 0 0-16.853 8.976c-5.527 3.257-11.126 6.561-16.802 9.92-5.64 3.596-11.422 7.25-17.347 10.947a818.658 818.658 0 0 1-18.386 11.784 530.704 530.704 0 0 1-19.609 12.113 363.302 363.302 0 0 1-20.607 11.478c-6.93 3.527-13.917 6.692-20.887 9.396-6.804 2.479-13.51 4.384-20.053 5.615-9.277.844-25.818-2.393-32.883-6.712-4.187-3.74-7.987-8.413-11.383-14.005-3.09-6.025-5.85-12.85-8.322-20.407-2.317-7.766-4.43-15.877-6.401-24.196-2.03-8.224-4.055-16.47-6.124-24.624-2.29-7.82-4.705-15.435-7.27-22.763-2.876-6.872-5.908-13.414-9.098-19.624a268.871 268.871 0 0 0-10.81-16.266c-5.92-6.954-17.78-19.52-23.428-25.392-5.486-5.604-14.828-17.001-18.47-22.949-3.06-6.065-6.586-19.004-6.997-25.85.304-6.992 3.605-21.462 6.57-28.828 3.614-7.373 13.23-22.037 19.186-29.25a188.592 188.592 0 0 1 13.703-14.077c4.986-4.612 10.242-9.037 15.733-13.29a289.016 289.016 0 0 1 17.081-12.273c5.87-3.974 11.933-7.792 18.153-11.484a444.166 444.166 0 0 1 19.032-10.874 520.803 520.803 0 0 1 19.76-10.412 557.913 557.913 0 0 1 20.348-9.98 509.272 509.272 0 0 1 20.723-9.392c6.91-3.01 13.86-5.84 20.84-8.438 6.867-2.581 13.73-4.904 20.557-6.907 6.681-1.924 13.298-3.473 19.804-4.619 6.33-.99 12.517-1.501 18.543-1.523 8.616.594 24.506 5.002 31.732 8.882 4.552 3.028 8.898 6.637 13.045 10.82 4.021 4.339 7.89 9.187 11.648 14.524 3.712 5.365 7.39 11.114 11.04 17.204" stroke-dasharray="9 9" opacity=".38"/><path d="M517.969 277.14c3.116 5.936 6.192 11.98 9.241 18.056a2260.345 2260.345 0 0 0 9.752 17.596c7.227 10.917 14.594 21.625 21.93 32.045 8.086 9.508 15.815 18.988 22.881 28.429 7.239 8.944 13.36 18.107 18.038 27.392 4.31 9.053 6.823 18.243 7.359 27.365-.167 8.867-2.451 17.507-6.876 25.638-5.148 7.791-12.322 14.987-21.383 21.406-4.686 3.115-9.792 6.044-15.274 8.798-5.527 2.729-11.377 5.313-17.537 7.753-6.114 2.478-12.348 4.788-18.636 6.961a704.14 704.14 0 0 1-18.656 6.538c-12.07 4.632-24.15 9.15-36.163 13.685a7617.083 7617.083 0 0 0-35.327 16.498c-11.864 6.488-24.268 13.055-37.198 19.515-12.905 6.955-26.311 13.403-39.93 18.897-13.213 5.143-26.181 8.577-38.402 9.744-11.072-.244-20.87-3.435-29.065-9.884-3.534-3.901-6.673-8.607-9.406-14.098-2.428-5.849-4.537-12.397-6.342-19.58-1.663-7.35-3.11-15.016-4.402-22.878-1.33-7.803-2.635-15.65-3.958-23.446-3.282-14.782-7.03-28.832-11.3-41.79-5.483-11.362-11.3-21.762-17.102-31.284-6.528-8.392-12.462-16.462-17.406-24.386-4.97-7.474-8.487-15.207-10.31-23.219-1.444-7.9-1.038-16.168 1.282-24.633 2.728-8.406 7.313-16.94 13.713-25.386 5.165-6.254 17.672-18.497 24.968-24.447a235.81 235.81 0 0 1 15.788-11.33 292.38 292.38 0 0 1 17.136-10.444c11.742-6.762 24.22-13.03 37.233-18.815 12.832-6.006 26.19-11.55 39.86-16.58 13.38-5.184 27.005-9.713 40.6-13.375 13.103-3.53 26.002-5.88 38.396-6.757 11.623-.31 22.556 1.207 32.56 4.744 9.14 4.365 17.4 10.83 24.727 19.377 3.474 4.467 6.779 9.394 9.955 14.75 3.141 5.365 6.22 11.097 9.246 17.14" stroke-dasharray="11 6" opacity=".82"/><path d="M520.952 296.07c5.14 11.554 10.142 23.35 15.115 35.075 5.799 10.911 11.66 21.63 17.461 32.054 6.522 9.617 12.69 19.096 18.246 28.397 5.807 8.761 10.588 17.526 14.06 26.197 3.25 8.34 4.857 16.612 4.674 24.64-.71 7.708-3.339 15.074-7.918 21.914-5.127 6.485-12.098 12.38-20.823 17.578-9.017 4.967-19.51 9.355-31.303 13.183-11.665 3.954-23.786 7.46-36.116 10.691-11.92 3.73-24.026 7.42-36.202 11.138-11.823 4.443-23.92 9.01-36.263 13.67-12.196 5.352-24.816 10.666-37.77 15.764-12.81 5.407-25.867 10.21-38.855 13.999-12.448 3.396-24.41 5.167-35.43 4.85-9.872-1.487-18.39-5.568-25.253-12.438-5.526-8.29-9.53-19.233-12.135-32.573-2.06-13.896-3.455-28.64-4.619-43.508-1.842-14.117-4.011-27.716-6.597-40.461-3.704-11.462-7.704-22.094-11.746-31.898-4.795-8.778-9.14-17.115-12.684-25.128-3.694-7.488-6.157-14.973-7.15-22.474-.757-7.283.153-14.71 2.81-22.146 2.99-7.32 7.706-14.643 14.142-21.82 6.663-7.065 14.933-13.956 24.796-20.558 9.907-6.546 20.83-12.543 32.494-17.996 11.586-5.516 23.876-10.565 36.652-15.123a465.076 465.076 0 0 1 38.883-12.586c12.947-3.733 26.006-6.753 38.905-8.908 12.39-1.981 24.44-2.813 35.858-2.26 10.674 1.041 20.55 3.724 29.448 8.205 8.097 5.14 15.265 12.098 21.482 20.87 5.788 9.136 11.012 19.763 15.83 31.645" stroke-dasharray="8 4" opacity=".39"/><path d="M521.588 314.443c3.993 11.223 7.767 22.667 11.44 34.04a4753.02 4753.02 0 0 0 13.126 31.466c4.995 9.535 9.65 18.85 13.734 27.869 4.407 8.492 7.896 16.823 10.219 24.877 2.218 7.665 3.006 15.102 2.18 22.15-1.186 6.7-4.075 12.971-8.715 18.668-5.03 5.362-11.746 10.146-20.065 14.266-8.527 3.916-18.453 7.308-29.652 10.211-11.1 3.016-22.744 5.659-34.693 8.063-11.657 2.869-23.61 5.677-35.726 8.525a9409.831 9409.831 0 0 1-36.386 10.51c-12.199 4.083-24.716 8.032-37.377 11.669-12.418 3.835-24.859 6.996-36.99 9.149-11.513 1.765-22.347 2.034-32.119.455-8.65-2.545-15.898-7.307-21.516-14.421-4.41-8.21-7.323-18.666-8.86-31.142-1.027-12.928-1.343-26.605-1.344-40.44-.56-13.289-1.317-26.228-2.363-38.498-2.042-11.267-4.333-21.834-6.683-31.64-3.099-8.93-5.859-17.358-7.996-25.323-2.388-7.435-3.755-14.666-3.872-21.708-.013-6.773 1.435-13.464 4.433-20.019 3.23-6.385 8.045-12.652 14.447-18.68 6.58-5.92 14.69-11.604 24.296-16.956 9.652-5.3 20.264-10.074 31.573-14.317 11.227-4.29 23.105-8.102 35.406-11.406a404.36 404.36 0 0 1 37.189-8.577c12.269-2.314 24.535-3.892 36.523-4.608 11.474-.542 22.506.001 32.817 1.811 9.605 2.221 18.38 5.886 26.123 11.117 7.026 5.733 13.12 13.04 18.242 21.887 4.774 9.103 8.93 19.5 12.61 31.002" stroke-dasharray="5 11" opacity=".83"/><path d="M519.96 331.923c2.907 10.775 5.528 21.72 7.981 32.579a4166.112 4166.112 0 0 1 9.054 30.345c3.54 9.269 6.749 18.251 9.449 26.867 3.064 8.122 5.312 15.95 6.549 23.381 1.247 7.034 1.244 13.702-.136 19.89-1.61 5.82-4.724 11.144-9.37 15.866-4.911 4.408-11.337 8.239-19.205 11.437-8.01 3.03-17.338 5.557-27.897 7.63-10.485 2.167-21.562 4.007-33.017 5.633-11.234 1.998-22.844 3.932-34.68 5.85a2909.496 2909.496 0 0 1-35.618 7.174c-11.899 2.772-23.99 5.327-36.046 7.502-11.758 2.3-23.33 3.888-34.414 4.536-10.439.306-20.06-.722-28.529-3.352-7.434-3.385-13.475-8.633-17.931-15.826-3.392-8.022-5.333-17.9-5.933-29.462-.146-11.91.454-24.455 1.449-37.176.535-12.318 1.026-24.414 1.328-36a994.565 994.565 0 0 0-2.065-30.6c-1.495-8.834-2.745-17.138-3.502-24.912-1.086-7.283-1.353-14.222-.584-20.811.76-6.29 2.763-12.338 6.114-18.108 3.483-5.581 8.374-10.92 14.7-15.934 6.45-4.882 14.301-9.466 23.521-13.663 9.27-4.147 19.404-7.759 30.166-10.832 10.696-3.11 21.967-5.716 33.567-7.793a345.877 345.877 0 0 1 34.802-4.721c11.384-.98 22.65-1.226 33.543-.643 10.408.739 20.286 2.478 29.393 5.349 8.466 3.186 16.074 7.635 22.658 13.411 5.964 6.151 10.996 13.634 15.081 22.397 3.798 8.946 6.95 18.991 9.572 29.986" stroke-dasharray="3 11" opacity=".41"/><path d="M516.176 348.218c1.914 10.192 3.486 20.503 4.833 30.71a1224.2 1224.2 0 0 1 5.325 28.732c2.2 8.83 4.074 17.347 5.489 25.424 1.789 7.663 2.886 14.931 3.128 21.722-.03 9.39-5.956 25.097-12.237 31.246-4.781 3.612-10.893 6.642-18.304 9.067-7.5 2.27-16.218 4.059-26.092 5.403-9.819 1.427-20.232 2.516-31.064 3.39-10.67 1.173-21.735 2.237-33.044 3.222a1520.127 1520.127 0 0 1-34.018 3.854c-11.28 1.482-22.635 2.688-33.824 3.474-10.843.857-21.355 1.053-31.234.374-9.246-.952-17.596-3.072-24.778-6.526-6.237-4.018-11.13-9.559-14.525-16.677-2.468-7.729-3.562-16.953-3.377-27.56.594-10.879 1.947-22.258 3.75-33.791 1.453-11.265 2.974-22.372 4.422-33.083.74-10.148 1.376-19.819 1.976-28.891-.038-8.496.108-16.477.623-23.9.166-6.988.966-13.544 2.59-19.65a48.908 48.908 0 0 1 7.801-16.333c3.752-4.862 8.703-9.378 14.903-13.472 6.285-3.983 13.812-7.575 22.545-10.719 8.776-3.098 18.3-5.625 28.357-7.617 10.002-2.003 20.467-3.485 31.169-4.429a287.52 287.52 0 0 1 31.842-1.195c10.32.22 20.43 1.14 30.095 2.836 9.21 1.826 17.847 4.56 25.7 8.266 7.285 3.937 13.706 8.96 19.151 15.083 4.923 6.384 8.948 13.876 12.05 22.42 2.877 8.658 5.096 18.242 6.748 28.62" stroke-dasharray="4 6" opacity=".59"/><path d="M510.418 363.023c1.022 9.514 1.662 19.082 2.035 28.525a629.071 629.071 0 0 1 2.003 26.695c.994 8.243 1.668 16.14 1.943 23.595.642 7.087.69 13.752.03 19.874-1.203 8.437-8.377 22.064-14.698 27.164-4.668 2.94-10.475 5.305-17.421 7.073-6.994 1.645-15.077 2.802-24.221 3.5-9.105.77-18.783 1.195-28.858 1.363-9.96.412-20.291.655-30.84.757-10.4.407-21.004.655-31.621.715-10.424.283-20.79.26-30.878-.186-9.724-.41-19.012-1.432-27.598-3.205-7.988-1.995-15.048-4.95-20.961-8.987-5.098-4.463-8.92-10.126-11.344-17.036-1.653-7.333-2.04-15.861-1.195-25.485 1.184-9.816 3.137-20.018 5.56-30.325 2.175-10.133 4.522-20.167 6.894-29.871 1.8-9.313 3.575-18.222 5.358-26.607 1.209-7.959 2.581-15.424 4.232-22.334 1.287-6.556 3.072-12.635 5.487-18.209a52.142 52.142 0 0 1 9.38-14.56c4.01-4.21 9.013-7.982 15.047-11.267 6.09-3.168 13.222-5.89 21.383-8.09 8.2-2.151 17.001-3.725 26.21-4.736 9.165-1.031 18.679-1.502 28.322-1.438 9.508.048 19.058.66 28.454 1.873 9.114 1.223 17.953 3.118 26.311 5.709 7.956 2.691 15.31 6.169 21.887 10.486a67.546 67.546 0 0 1 15.709 16.125c3.927 6.442 6.995 13.78 9.187 21.97 2.035 8.254 3.417 17.266 4.203 26.912" stroke-dasharray="4 1" opacity=".96"/><path d="M502.892 376.108c.255 8.733.09 17.465-.373 26.04a403.14 403.14 0 0 1-.811 24.32c-.056 7.541-.413 14.727-1.122 21.448-.798 9.43-4.908 25.345-8.66 31.693-4.524 5.376-18.167 12.827-27.4 14.946-6.496 1.12-13.943 1.75-22.32 1.892-8.342.214-17.191.037-26.387-.407-9.115-.273-18.548-.77-28.137-1.46a617.994 617.994 0 0 1-28.589-2.064c-9.329-.746-18.507-1.83-27.328-3.303-8.478-1.45-16.452-3.446-23.687-6.081-6.692-2.771-12.495-6.329-17.188-10.744-4.026-4.687-6.873-10.32-8.443-16.902-.948-6.855-.73-14.638.614-23.266 1.647-8.76 4.029-17.79 6.908-26.868 2.703-8.983 5.654-17.863 8.712-26.472 2.618-8.345 5.282-16.359 7.99-23.906 2.237-7.235 4.617-14.029 7.195-20.286 3.574-8.733 12.707-23.342 18.748-29.205 4.222-3.583 9.24-6.68 15.059-9.229 5.853-2.453 12.545-4.397 20.067-5.782 7.552-1.344 15.539-2.075 23.818-2.259 8.225-.18 16.68.195 25.165 1.098 8.368.892 16.684 2.35 24.765 4.363 7.853 2.022 15.375 4.654 22.383 7.905 6.68 3.308 12.76 7.31 18.088 11.989a65.871 65.871 0 0 1 12.427 16.53c2.994 6.339 5.185 13.39 6.566 21.09 1.268 7.743 1.912 16.08 1.94 24.92" stroke-dasharray="3 3" opacity=".61"/><path d="M493.875 387.268c-.404 7.876-1.225 15.7-2.354 23.343a275.818 275.818 0 0 1-3.122 21.679c-.91 6.742-2.115 13.117-3.617 19.06-2.011 8.352-8.005 22.231-12.318 27.629-4.857 4.525-18.19 10.438-26.785 11.85-6 .688-12.79.868-20.354.547-7.543-.266-15.494-.92-23.704-1.902a450.138 450.138 0 0 1-25.038-3.314 407.4 407.4 0 0 1-25.074-4.34c-8.096-1.575-15.969-3.483-23.426-5.757-7.155-2.242-13.773-4.952-19.657-8.173-7.725-5.272-17.619-19.262-19.446-28.124-.353-6.325.348-13.329 2.076-20.949 1.957-7.72 4.62-15.586 7.781-23.465 3.048-7.812 6.396-15.517 9.902-22.982 3.19-7.31 6.488-14.32 9.86-20.917 3.008-6.402 6.135-12.388 9.433-17.883 4.656-7.71 15.349-20.386 21.728-25.302 4.378-2.975 9.333-5.435 14.896-7.327 5.57-1.82 11.771-3.091 18.602-3.771 6.84-.652 13.968-.707 21.238-.206a154.558 154.558 0 0 1 21.852 3.097c7.173 1.548 14.218 3.618 20.982 6.206 6.57 2.588 12.776 5.727 18.467 9.389 5.436 3.696 10.29 7.963 14.437 12.786 3.868 4.877 7.022 10.345 9.389 16.355 2.142 6.067 3.555 12.686 4.227 19.798.603 7.129.612 14.715.025 22.673" stroke-dasharray="4 9" opacity=".53"/><path d="M483.638 396.34a201.256 201.256 0 0 1-8.745 39.386c-2.831 11.605-6.829 21.782-12.105 29.969-4.58 7.561-11.098 13.14-19.75 16.365-8.508 2.814-19.512 3.566-32.96 2.179-13.396-1.216-27.912-3.979-42.527-7.8-14.283-3.328-28.242-7.835-40.65-13.484-11.37-5.511-20.395-12.705-25.961-21.645-3.89-9.337-4.096-20.74-.436-33.922 4.433-13.423 11.073-26.956 18.727-39.684 6.768-12.348 14.117-23.567 21.823-33.033 6.828-8.921 14.643-16.117 23.623-21.152 8.78-4.669 19.293-7.332 31.463-7.599 12.212-.165 24.879 1.938 37.089 5.941 11.904 3.963 22.886 9.91 31.997 17.548 8.337 7.712 14.45 17.33 17.73 28.552 2.673 11.349 2.905 24.315.682 38.38" stroke-dasharray="2 7" opacity=".37"/><path d="M472.482 403.256c-2.434 12.007-6.26 23.385-10.974 33.565-3.814 9.856-8.662 18.373-14.494 25.066-5.252 6.28-11.97 10.737-20.215 13.068-8.079 2.034-18.023 2.165-29.724.244-11.671-1.795-23.971-5.126-36.074-9.542-11.846-4.065-23.099-9.276-32.79-15.45-8.86-6.042-15.561-13.393-19.26-21.953-2.465-8.728-1.794-18.891 2.178-30.17 4.578-11.413 11.172-22.682 18.798-33.147 7.06-10.25 14.788-19.495 22.834-27.172 7.393-7.349 15.497-13.118 24.284-16.901 8.59-3.531 18.293-5.167 28.95-4.541 10.675.704 21.289 3.507 31.16 7.996 9.666 4.454 18.262 10.64 25.065 18.203 6.295 7.59 10.57 16.672 12.409 26.893 1.463 10.278.755 21.724-2.147 33.84" stroke-dasharray="5 5" opacity=".12"/><path d="M460.734 407.962c-2.944 10.09-7.147 19.483-12.16 27.751-4.383 8.085-9.654 14.946-15.66 20.204-5.562 5.004-12.195 8.398-19.85 9.921-7.5 1.357-16.293.978-26.21-1.276-9.903-2.154-19.992-5.778-29.624-10.397-9.443-4.387-18.115-9.83-25.29-16.043-6.568-6.088-11.228-13.154-13.369-20.993-1.287-7.885.012-16.686 4.069-26.106 4.488-9.5 10.748-18.638 17.98-26.962 6.902-8.239 14.502-15.538 22.383-21.485 7.444-5.764 15.379-10.129 23.637-12.743 8.11-2.468 16.833-3.212 25.931-1.95 9.12 1.328 17.768 4.497 25.5 9.08 7.6 4.583 14.056 10.598 18.883 17.698 4.513 7.1 7.264 15.326 7.95 24.322.499 9.016-.881 18.823-4.17 28.98" stroke-dasharray="4 3" opacity=".78"/><path d="M448.68 410.474c-3.138 8.176-7.384 15.638-12.325 22.078-4.526 6.363-9.794 11.628-15.594 15.556-5.502 3.78-11.731 6.19-18.573 7.029-6.74.749-14.268.003-22.395-2.376-8.111-2.32-16.046-5.91-23.359-10.391-7.179-4.332-13.513-9.543-18.486-15.36-4.572-5.712-7.53-12.112-8.45-18.957-.386-6.833 1.308-14.205 5.2-21.816 4.199-7.648 9.867-14.817 16.39-21.19 6.355-6.347 13.38-11.84 20.628-16.19 6.995-4.257 14.33-7.319 21.746-8.912 7.304-1.513 14.86-1.553 22.39.106 7.535 1.71 14.352 4.93 20.18 9.303 5.755 4.36 10.39 9.876 13.59 16.184 3.049 6.3 4.596 13.43 4.46 21.034-.228 7.6-1.997 15.693-5.403 23.902" stroke-dasharray="1 7" opacity=".5"/><path d="M436.63 410.876c-5.875 12.597-15.265 22.443-25.88 27.941-9.878 5.254-21.924 6.09-34.617 1.487-12.69-4.453-23.568-12.992-30.118-23.156-5.614-9.852-5.764-21.651.997-33.435 7.51-11.8 19.294-21.452 31.87-27.369 12.07-5.777 25.167-7.613 37.089-4.045 11.914 3.698 20.56 12.05 24.546 22.604 3.737 10.54 2.647 23.353-3.887 35.973" stroke-dasharray="1 1" opacity=".8"/><path d="M424.84 409.277c-5.237 9.035-13.159 15.73-21.844 19.143-8.32 3.33-17.883 3.343-27.11-.682-9.232-3.936-16.355-10.918-19.99-18.953-3.185-7.853-2.334-16.881 3.367-25.392 6.121-8.499 15.414-14.994 25.28-18.576 9.662-3.542 19.912-4.071 28.71-.668 8.795 3.482 14.567 10.255 16.705 18.404 2.067 8.156.488 17.708-5.118 26.724" stroke-dasharray="11 10" opacity=".92"/><path d="M413.53 405.853c-7.77 11.412-22.786 15.835-34.644 9.733-11.865-5.961-15.842-19.513-7.699-30.437 8.888-10.833 25.491-15.374 36.975-9.923 11.476 5.602 13.836 19.28 5.368 30.627" stroke-dasharray="9 8" opacity=".66"/></g></svg>