<svg width="1440" height="165" viewBox="0 0 1440 165" fill="none" xmlns="http://www.w3.org/2000/svg">
<path d="M-85.2085 1.53013L-32.0788 1.11627C21.0509 0.702413 127.31 -0.125313 232.766 4.76311C338.212 9.72482 442.864 20.3294 547.784 29.0286C652.704 37.7278 757.892 44.5216 864.193 43.4007C970.483 42.3532 1077.88 33.4642 1184.17 32.4167C1290.47 31.2958 1395.65 38.0896 1448.26 41.4132L1500.85 44.8101L1484.06 164.263L1431.09 163.577C1378.11 162.892 1272.16 161.521 1166.21 160.15C1060.26 158.78 954.309 157.409 848.359 156.038C742.409 154.667 636.458 153.296 530.508 151.926C424.558 150.555 318.607 149.184 212.657 147.813C106.707 146.442 0.756388 145.072 -52.2188 144.386L-105.194 143.701L-85.2085 1.53013Z" fill="#BF4CA0"/>
</svg>
