<svg width="1460" height="378" fill="none" xmlns="http://www.w3.org/2000/svg"><path d="M0 191.143V3.643c104.216-20 366.957 49 536.736 46s355.704-29 499.554-26c115.07 2.4 330.42 31.667 423.71 46v121.5H0Z" fill="#5EB7FF"/><path d="M0 269V54c50.067 9.167 168.678 29.7 242.592 38.5 92.393 11 226.782 5.5 370.064-11 141.296-16.271 381.567 14.135 513.294 30.805l5.49.695c104.35 13.2 262.52 13.833 328.56 12.5V269H0Z" fill="#7D91EA"/><path d="M0 269V113c454.444 32.5 589.98 10 723.024 14.5C856.068 132 1037.95 180 1248.23 202c210.28 22 211.77 0 211.77 0v67H0Z" fill="#A571CD"/><path d="M0 322V167.573c173.762-37.982 482.738 6.988 624.145 35.983 143.803 29.486 376.985 26.987 533.265 18.991 156.29-7.996 260.98 18.325 302.59 27.487V322H0Z" fill="#BF4CA0"/><path d="M495.67 252.5C356.422 247.7 107.203 270.167 0 282v96h1460v-83.5h-421.64c-150.197 0-368.631-36-542.69-42Z" fill="#C62368"/></svg>