<svg width="1440" height="100" viewBox="0 0 1440 100" fill="none" xmlns="http://www.w3.org/2000/svg">
<path d="M-346.842 44.1689L-280.388 41.5583C-213.933 38.9476 -81.0244 33.7263 52.4736 24.3354C185.972 14.9445 320.058 1.38397 452.025 2.83407C583.972 4.42315 713.819 20.8839 845.079 27.3375C976.358 33.6522 1109.07 29.8207 1242.12 23.6265C1375.14 17.5713 1508.52 9.01438 1575.19 4.87487L1641.88 0.596364L1620.29 153.482L1554.33 152.618C1488.36 151.754 1356.44 150.026 1224.51 148.298C1092.58 146.57 960.653 144.842 828.725 143.114C696.798 141.386 564.871 139.658 432.943 137.93C301.016 136.202 169.088 134.474 37.1608 132.745C-94.7666 131.017 -226.694 129.289 -292.658 128.425L-358.621 127.561L-346.842 44.1689Z" fill="#C62368"/>
</svg>
