<svg width="1440" height="291" viewBox="0 0 1440 291" fill="none" xmlns="http://www.w3.org/2000/svg">
<path d="M1489.99 27.8955L1436.51 30.8275C1383.01 33.8361 1276.05 39.7002 1171.06 34.3119C1066.09 28.8472 963.104 12.0536 858.265 5.82334C753.412 -0.330339 646.716 4.00279 539.562 10.9385C432.408 17.8742 324.797 27.4125 219.11 26.0047C113.409 24.6734 9.61942 12.4726 -42.2754 6.37217L-94.1703 0.271755L-139.251 256.701L-86.4813 257.826C-33.7118 258.951 71.8273 261.201 177.366 263.451C282.905 265.701 388.445 267.951 493.984 270.2C599.523 272.45 705.062 274.7 810.601 276.95C916.14 279.2 1021.68 281.45 1127.22 283.699C1232.76 285.949 1338.3 288.199 1391.07 289.324L1443.84 290.449L1489.99 27.8955Z" fill="#7D91EA"/>
</svg>
