<svg width="1460" height="378" viewBox="0 0 1460 378" fill="none" xmlns="http://www.w3.org/2000/svg">
<path d="M0 191.143V3.64335C104.216 -16.3567 366.957 52.6433 536.736 49.6433C706.515 46.6433 892.44 20.6433 1036.29 23.6433C1151.36 26.0433 1366.71 55.31 1460 69.6433V191.143H0Z" fill="#5EB7FF"/>
<path d="M0 269V54C50.0666 63.1667 168.678 83.7 242.592 92.5C334.985 103.5 469.374 98 612.656 81.5C753.952 65.2289 994.223 95.6354 1125.95 112.305L1131.44 113C1235.79 126.2 1393.96 126.833 1460 125.5V269H0Z" fill="#7D91EA"/>
<path d="M0 269V113C454.444 145.5 589.98 123 723.024 127.5C856.068 132 1037.95 180 1248.23 202C1458.51 224 1460 202 1460 202V269H0Z" fill="#A571CD"/>
<path d="M0 322V167.573C173.762 129.591 482.738 174.561 624.145 203.556C767.948 233.042 1001.13 230.543 1157.41 222.547C1313.7 214.551 1418.39 240.872 1460 250.034V322H0Z" fill="#BF4CA0"/>
<path d="M495.67 252.5C356.422 247.7 107.203 270.167 0 282V326.5V378H1460V326.5V294.5H1038.36C888.163 294.5 669.729 258.5 495.67 252.5Z" fill="#C62368"/>
</svg>
