<svg width="1440" height="244" viewBox="0 0 1440 244" fill="none" xmlns="http://www.w3.org/2000/svg">
<path d="M-121.322 0.122875L-66.7727 4.71929C-12.2086 9.23908 96.8905 18.4319 207.792 18.2011C318.678 18.0469 431.352 8.54575 542.736 5.78669C654.106 3.10423 764.202 7.08727 872.715 19.3447C981.242 31.5254 1088.2 51.904 1197.51 60.0242C1306.81 68.1444 1418.46 64.0062 1474.28 61.9372L1530.11 59.8681L1494.51 246.042L1439.34 244.663C1384.18 243.284 1273.85 240.527 1163.52 237.77C1053.19 235.013 942.858 232.256 832.528 229.499C722.198 226.741 611.868 223.984 501.539 221.227C391.209 218.47 280.879 215.713 170.549 212.955C60.2198 210.198 -50.11 207.441 -105.275 206.062L-160.44 204.684L-121.322 0.122875Z" fill="#A571CD"/>
</svg>
