<svg width="1440" height="338" viewBox="0 0 1440 338" fill="none" xmlns="http://www.w3.org/2000/svg">
    <path d="M-142.648 5.18027L-88.6398 8.09659C-34.641 11.0896 73.3745 16.9223 181.097 25.2862C288.827 33.5735 396.274 44.3154 505.472 39.946C614.662 35.6533 725.613 16.1727 835.354 7.12421C945.095 -1.92428 1053.64 -0.694049 1161.45 6.97956C1269.25 14.6532 1376.3 28.7701 1429.84 35.7519L1483.37 42.8104L1449.21 337.365L1394.91 336.98C1340.61 336.595 1232.01 335.825 1123.4 335.055C1014.8 334.285 906.198 333.515 797.596 332.745C688.993 331.975 580.391 331.205 471.788 330.435C363.185 329.665 254.583 328.895 145.98 328.125C37.3777 327.355 -71.2249 326.585 -125.526 326.2L-179.827 325.815L-142.648 5.18027Z" fill="#64BAFF"/>
    </svg>
    