<svg width="238" height="238" fill="none" xmlns="http://www.w3.org/2000/svg"><path d="M119.079 81.108c-20.706 0-37.506 16.8-37.506 37.521 0 20.698 16.8 37.529 37.506 37.529s37.388-16.831 37.388-37.529c0-20.72-16.674-37.521-37.388-37.521Zm75.198 59.064-6.758 16.282 13.65 26.805-16.718 16.719-27.428-12.954-16.282 6.684-8.263 25.301-1.06 3.357h-23.626l-10.227-28.561-16.281-6.714-26.843 13.591-16.711-16.704 12.94-27.442-6.708-16.267-28.605-9.338v-23.618l28.576-10.242 6.707-16.252-12.02-23.73-1.587-3.113 16.69-16.689L81.187 50.22l16.26-6.722 8.256-25.285 1.067-3.35h23.626l10.234 28.591 16.237 6.722 26.88-13.621 16.704 16.689-12.94 27.42 6.685 16.29 28.658 9.322v23.611l-28.569 10.279-.008.007Z" fill="#BF4CA0"/></svg>