<svg width="238" height="238" viewBox="0 0 238 238" fill="none" xmlns="http://www.w3.org/2000/svg">
<path d="M118.556 81.5839C97.8495 81.5839 81.0491 98.3844 81.0491 119.105C81.0491 139.804 97.8495 156.634 118.556 156.634C139.261 156.634 155.943 139.804 155.943 119.105C155.943 98.3844 139.269 81.5839 118.556 81.5839ZM193.754 140.649L186.995 156.93L200.646 183.735L183.927 200.454L156.499 187.5L140.218 194.185L131.954 219.485L130.895 222.843H107.269L97.0417 194.281L80.76 187.567L53.9178 201.158L37.2063 184.454L50.1457 157.012L43.4389 140.745L14.8329 131.407V107.789L43.4092 97.5469L50.1161 81.2949L38.0956 57.5653L36.5097 54.4527L53.199 37.7634L80.6637 50.6954L96.9232 43.9737L105.179 18.6878L106.246 15.3381H129.872L140.106 43.9292L156.344 50.6509L183.223 37.0297L199.927 53.719L186.988 81.1393L193.672 97.4284L222.33 106.751V130.362L193.761 140.641L193.754 140.649Z" fill="#EB47BF"/>
</svg>
