<svg width="238" height="238" fill="none" xmlns="http://www.w3.org/2000/svg"><path d="M119.032 81.536c-20.706 0-37.507 16.8-37.507 37.522 0 20.698 16.8 37.528 37.507 37.528 20.706 0 37.388-16.83 37.388-37.528 0-20.721-16.675-37.522-37.388-37.522Zm75.198 59.065-6.759 16.282 13.651 26.805-16.719 16.719-27.427-12.954-16.282 6.684-8.263 25.301-1.06 3.357h-23.626l-10.227-28.561-16.282-6.715-26.842 13.592-16.711-16.704 12.939-27.443-6.707-16.267-28.606-9.337v-23.619l28.577-10.242 6.706-16.252-12.02-23.73-1.586-3.112 16.69-16.69L81.14 50.649l16.26-6.722 8.255-25.286 1.067-3.35h23.626l10.235 28.592 16.237 6.721 26.879-13.62 16.704 16.689-12.939 27.42 6.684 16.289 28.658 9.323v23.611l-28.569 10.279-.007.007Z" fill="#A2E1FF"/></svg>