<svg width="238" height="238" viewBox="0 0 238 238" fill="none" xmlns="http://www.w3.org/2000/svg">
<g clip-path="url(#clip0_56_1628)">
<path d="M118.723 96.2458C98.0166 96.2458 81.2162 113.046 81.2162 133.767C81.2162 154.466 98.0166 171.296 118.723 171.296C139.429 171.296 156.111 154.466 156.111 133.767C156.111 113.046 139.436 96.2458 118.723 96.2458ZM193.921 155.311L187.162 171.592L200.813 198.397L184.094 215.116L156.666 202.162L140.385 208.847L132.121 234.147L131.062 237.505H107.436L97.2088 208.943L80.9272 202.229L54.085 215.82L37.3734 199.116L50.3128 171.674L43.606 155.407L15 146.069V122.451L43.5763 112.209L50.2832 95.9568L38.2627 72.2272L36.6768 69.1146L53.3661 52.4253L80.8308 65.3573L97.0903 58.6356L105.346 33.3497L106.413 30H130.039L140.273 58.5912L156.511 65.3128L183.39 51.6916L200.094 68.3809L187.155 95.8012L193.839 112.09L222.497 121.413V145.024L193.928 155.303L193.921 155.311Z" fill="#7D91EA"/>
</g>
<defs>
<clipPath id="clip0_56_1628">
<rect width="237.148" height="237.148" fill="white" transform="translate(0.523682 0.523743)"/>
</clipPath>
</defs>
</svg>
