<svg width="238" height="238" fill="none" xmlns="http://www.w3.org/2000/svg"><path d="M119.032 81.06c-20.706 0-37.507 16.8-37.507 37.521 0 20.699 16.8 37.529 37.507 37.529 20.706 0 37.388-16.83 37.388-37.529 0-20.72-16.675-37.52-37.388-37.52Zm75.198 59.065-6.759 16.282 13.651 26.805-16.719 16.719-27.427-12.955-16.282 6.685-8.263 25.301-1.06 3.357h-23.626l-10.227-28.562-16.282-6.714-26.842 13.592-16.711-16.704 12.939-27.443-6.707-16.267-28.606-9.338v-23.618l28.577-10.242 6.706-16.252-12.02-23.73-1.586-3.112 16.69-16.69L81.14 50.173 97.4 43.45l8.255-25.286 1.067-3.35h23.626l10.235 28.592 16.237 6.721 26.879-13.621 16.704 16.69-12.939 27.42 6.684 16.289 28.658 9.322v23.612l-28.569 10.278-.007.008Z" fill="#C62368"/></svg>