<svg width="238" height="238" viewBox="0 0 238 238" fill="none" xmlns="http://www.w3.org/2000/svg">
<path d="M118.556 81.0602C97.8495 81.0602 81.0491 97.8606 81.0491 118.581C81.0491 139.28 97.8495 156.11 118.556 156.11C139.261 156.11 155.943 139.28 155.943 118.581C155.943 97.8606 139.269 81.0602 118.556 81.0602ZM193.754 140.125L186.995 156.407L200.646 183.212L183.927 199.931L156.499 186.976L140.218 193.661L131.954 218.962L130.895 222.319H107.269L97.0417 193.757L80.76 187.043L53.9178 200.635L37.2063 183.931L50.1457 156.488L43.4389 140.221L14.8329 130.883V107.265L43.4092 97.0232L50.1161 80.7711L38.0956 57.0415L36.5097 53.9289L53.199 37.2396L80.6637 50.1716L96.9232 43.45L105.179 18.164L106.246 14.8143H129.872L140.106 43.4055L156.344 50.1272L183.223 36.506L199.927 53.1953L186.988 80.6155L193.672 96.9046L222.33 106.227V129.839L193.761 140.117L193.754 140.125Z" stroke="#A571CD" stroke-width="8"/>
</svg>
