<svg width="238" height="238" fill="none" xmlns="http://www.w3.org/2000/svg"><path d="M118.556 81.584c-20.706 0-37.507 16.8-37.507 37.521 0 20.699 16.8 37.529 37.507 37.529 20.705 0 37.387-16.83 37.387-37.529 0-20.72-16.674-37.521-37.387-37.521Zm75.198 59.065-6.759 16.281 13.651 26.805-16.719 16.719-27.428-12.954-16.281 6.685-8.264 25.3-1.059 3.358h-23.626l-10.227-28.562-16.282-6.714-26.842 13.591-16.712-16.704 12.94-27.442-6.707-16.267-28.606-9.338v-23.618l28.576-10.242 6.707-16.252-12.02-23.73-1.586-3.112 16.689-16.69 27.465 12.932 16.26-6.721 8.255-25.286 1.067-3.35h23.626l10.234 28.591 16.238 6.722 26.879-13.621 16.704 16.689-12.939 27.42 6.684 16.29 28.658 9.322v23.611l-28.569 10.279-.007.008Z" fill="#EB47BF"/></svg>