<svg width="238" height="238" viewBox="0 0 238 238" fill="none" xmlns="http://www.w3.org/2000/svg">
<path d="M119.032 81.0602C98.3258 81.0602 81.5254 97.8606 81.5254 118.581C81.5254 139.28 98.3258 156.11 119.032 156.11C139.738 156.11 156.42 139.28 156.42 118.581C156.42 97.8606 139.745 81.0602 119.032 81.0602ZM194.23 140.125L187.471 156.407L201.122 183.212L184.403 199.931L156.976 186.976L140.694 193.661L132.431 218.962L131.371 222.319H107.745L97.5181 193.757L81.2364 187.043L54.3942 200.635L37.6826 183.931L50.622 156.488L43.9152 140.221L15.3092 130.883V107.265L43.8855 97.0232L50.5924 80.7711L38.5719 57.0415L36.986 53.9289L53.6753 37.2396L81.14 50.1716L97.3995 43.45L105.655 18.164L106.722 14.8143H130.348L140.583 43.4055L156.82 50.1272L183.699 36.506L200.403 53.1953L187.464 80.6155L194.148 96.9046L222.806 106.227V129.839L194.237 140.117L194.23 140.125Z" fill="#C62368"/>
</svg>
