<svg xmlns="http://www.w3.org/2000/svg" viewBox="0 0 800 800"><defs><filter id="b" x="-100%" y="-100%" width="400%" height="400%" filterUnits="objectBoundingBox" primitiveUnits="userSpaceOnUse" color-interpolation-filters="sRGB"><feGaussianBlur stdDeviation="6 0" x="0%" y="0%" width="100%" height="100%" in="SourceGraphic" result="blur"/></filter><filter id="c" x="-100%" y="-100%" width="400%" height="400%" filterUnits="objectBoundingBox" primitiveUnits="userSpaceOnUse" color-interpolation-filters="sRGB"><feGaussianBlur stdDeviation="0 9" x="0%" y="0%" width="100%" height="100%" in="SourceGraphic" result="blur"/></filter><linearGradient x1="50%" y1="0%" x2="50%" y2="100%" id="a"><stop stop-color="#c62368" offset="0%"/><stop stop-color="#64baff" offset="100%"/></linearGradient></defs><g stroke-width="12.5" stroke="url(#a)" fill="none"><path d="M386.836 210.146a26.328 26.328 0 0 1 26.328.001l144.672 83.527a26.326 26.326 0 0 1 13.164 22.8v167.053a26.33 26.33 0 0 1-13.164 22.8l-144.672 83.527a26.328 26.328 0 0 1-26.328-.001l-144.672-83.527a26.326 26.326 0 0 1-13.164-22.8V316.474a26.33 26.33 0 0 1 13.164-22.8l144.672-83.527Z" filter="url(#b)"/><path d="M386.836 210.146a26.328 26.328 0 0 1 26.328.001l144.672 83.527a26.326 26.326 0 0 1 13.164 22.8v167.053a26.33 26.33 0 0 1-13.164 22.8l-144.672 83.527a26.328 26.328 0 0 1-26.328-.001l-144.672-83.527a26.326 26.326 0 0 1-13.164-22.8V316.474a26.33 26.33 0 0 1 13.164-22.8l144.672-83.527Z" filter="url(#c)" opacity=".18"/><path d="M386.836 210.146a26.328 26.328 0 0 1 26.328.001l144.672 83.527a26.326 26.326 0 0 1 13.164 22.8v167.053a26.33 26.33 0 0 1-13.164 22.8l-144.672 83.527a26.328 26.328 0 0 1-26.328-.001l-144.672-83.527a26.326 26.326 0 0 1-13.164-22.8V316.474a26.33 26.33 0 0 1 13.164-22.8l144.672-83.527Z" filter="url(#c)" opacity=".18"/><path d="M386.836 210.146a26.328 26.328 0 0 1 26.328.001l144.672 83.527a26.326 26.326 0 0 1 13.164 22.8v167.053a26.33 26.33 0 0 1-13.164 22.8l-144.672 83.527a26.328 26.328 0 0 1-26.328-.001l-144.672-83.527a26.326 26.326 0 0 1-13.164-22.8V316.474a26.33 26.33 0 0 1 13.164-22.8l144.672-83.527Z"/></g></svg>