<svg width="907" height="237" fill="none" xmlns="http://www.w3.org/2000/svg"><path d="M166.639 5.762c-1.021.465-6.498 6.878-12.254 14.127-26.272 33.088-57.93 63.293-90.236 85.692-5.756 3.997-11.14 8.272-11.883 9.387-1.764 2.696-.928 6.227 1.857 8.179 33.05 23.514 44.747 33.273 67.027 55.672 17.546 17.659 33.235 35.875 40.29 46.749 2.6 3.904 3.807 5.019 6.406 5.484 1.764.372 3.899.186 4.735-.279.835-.465 4.549-4.833 8.262-9.666 24.787-31.786 54.958-61.248 86.987-84.948 5.663-4.183 12.161-8.737 14.668-10.131 2.413-1.487 4.827-3.439 5.384-4.461 1.3-2.509.186-6.971-2.228-8.643-28.408-19.704-41.497-30.3-61.828-50.189-17.36-16.915-30.45-31.6-41.59-46.47-8.634-11.432-10.862-12.92-15.597-10.503Zm12.162 30.485c14.668 7.435 49.388 39.686 68.234 63.386 9.933 12.454 11.047 14.406 11.047 19.053 0 3.067-.928 5.205-4.735 10.874-16.246 24.351-68.883 72.029-81.323 73.702-6.499.837-17.175-6.041-39.734-25.744-25.715-22.492-48.645-48.33-50.595-57.066-1.3-6.041 3.992-14.127 23.023-34.853 15.039-16.358 49.481-46.006 59.043-50.653 4.364-2.23 8.913-1.766 15.04 1.301Z" fill="#5EB7FF"/><path d="M163.854 40.894c-9.19 4.554-40.476 31.507-55.701 48.05C92 106.419 86.523 114.69 87.636 119.988c.558 2.881 5.014 9.294 13.369 19.332 14.853 17.937 48.553 47.957 61.364 54.835 8.634 4.554 11.604 3.997 23.766-4.926 23.023-16.915 56.443-50.467 63.592-63.943 2.321-4.369 2.878-6.227 2.414-8.644-1.579-7.993-30.358-40.43-52.638-59.296-21.445-18.03-27.201-20.726-35.649-16.45Zm12.997 33.273c3.621 9.573 6.591 17.845 6.777 18.495.279.837-1.114 1.209-4.456 1.209h-4.827l.649 17.658.65 17.659h-12.347l.65-17.659.65-17.658h-4.456c-3.064 0-4.271-.372-3.899-1.209 1.207-3.346 9.098-25.187 10.954-30.206 1.114-3.16 2.228-5.762 2.6-5.762.278 0 3.527 7.9 7.055 17.473Zm-27.479 29.555c3.156 1.859 5.477 3.718 5.199 4.09-.279.372-1.95 1.022-3.899 1.394-9.191 1.673-16.339 7.714-14.39 12.082 2.6 5.67 17.268 9.387 35.927 9.201 14.668-.185 24.323-2.137 31.472-6.32 3.713-2.137 4.27-2.881 4.27-5.576 0-5.112-6.777-9.294-12.904-7.9-1.764.372-3.342.651-3.435.558-.743-.744-3.806-9.945-3.342-9.945 2.321 0 21.538 5.112 21.538 5.669 0 .465-.65.837-1.579.837-.835 0 .093 1.115 2.321 2.788 6.406 4.554 7.427 9.015 3.435 13.848-6.127 7.25-23.023 11.525-45.489 11.618-18.381 0-30.357-2.324-42.426-8.365-12.997-6.506-10.026-17.287 6.684-24.35 3.807-1.58 7.891-2.975 9.005-2.975 1.114 0 4.549 1.488 7.613 3.346Zm26.551 34.946c.185.651.742 8.737 1.207 17.938.65 12.082.557 16.915-.186 17.38-1.207.836-11.883.929-13.925.186-1.3-.558-1.486-2.51-.929-17.473.279-9.201.65-17.38.929-18.031.185-.743 2.321-1.115 6.405-1.115 4.085 0 6.22.372 6.499 1.115Z" fill="#5EB7FF"/><path d="M319.353 125.935v88.759h48.274V37.177h-48.274v88.758ZM394.55 125.935v88.759h134.611v-16.636c0-12.454-.279-16.73-1.114-17.009-.65-.185-19.96-.464-42.983-.65l-41.776-.186-.278-19.053-.186-18.96 39.455-.186 39.548-.279.371-16.543.464-16.451h-79.838l.186-18.867.278-18.774 42.983-.279 42.89-.186V37.176H394.55v88.759ZM557.94 125.935v88.759h134.611v-16.636c0-13.849-.186-16.73-1.393-17.194-.742-.279-20.052-.465-42.89-.465l-41.59.093-.278-19.146-.186-19.146h78.91v-33.459h-78.91V70.635H692.551V37.176H557.94v88.759ZM720.587 125.656l.279 88.573 67.584.279 67.491.186-.186-16.915-.278-17.008H769.604V142.2h78.91v-33.459h-78.91V70.635H855.941V37.176h-135.54l.186 88.48ZM214.728 205.4c-3.621 2.138-5.106 4.833-5.106 9.015 0 7.343 3.992 11.432 11.326 11.432 7.148 0 12.068-4.554 12.068-11.153 0-8.736-10.49-14.127-18.288-9.294Zm10.769 1.394c8.169 4.182 4.734 17.194-4.456 17.194-4.364 0-7.149-1.952-8.448-6.041-2.693-8.179 5.291-15.149 12.904-11.153Z" fill="#fff"/><path d="M216.492 214.88c.278 5.762 1.856 7.807 2.413 3.067.372-3.067 1.672-2.974 3.435.465.836 1.487 1.857 2.788 2.321 2.788 1.207 0 1.207-.372-.185-3.253-.929-2.045-.836-2.509.742-3.718 2.878-2.137.65-4.554-4.641-4.925l-4.364-.279.279 5.855Zm6.962-3.346c.65 1.673-1.299 3.253-3.156 2.51-.65-.279-1.207-1.302-1.207-2.231 0-2.231 3.528-2.417 4.363-.279Z" fill="#fff"/></svg>