<svg width="238" height="227" fill="none" xmlns="http://www.w3.org/2000/svg"><path d="M115.298.987c-1.021.465-6.499 6.878-12.254 14.127-26.273 33.087-57.93 63.293-90.236 85.692-5.756 3.996-11.14 8.272-11.883 9.387-1.764 2.695-.929 6.227 1.857 8.179 33.049 23.514 44.746 33.273 67.027 55.672 17.545 17.658 33.235 35.875 40.29 46.749 2.599 3.903 3.806 5.019 6.406 5.483 1.764.372 3.899.186 4.734-.278.836-.465 4.549-4.833 8.263-9.666 24.787-31.786 54.958-61.248 86.986-84.948 5.663-4.183 12.162-8.737 14.668-10.131 2.414-1.487 4.828-3.439 5.385-4.461 1.299-2.51.185-6.971-2.228-8.644-28.408-19.703-41.498-30.299-61.829-50.188-17.36-16.915-30.45-31.6-41.59-46.47C122.26.057 120.032-1.43 115.298.986Zm12.161 30.485c14.668 7.435 49.389 39.686 68.234 63.386 9.933 12.454 11.048 14.406 11.048 19.053 0 3.067-.929 5.204-4.735 10.874-16.246 24.35-68.884 72.029-81.324 73.702-6.498.837-17.174-6.041-39.733-25.745-25.716-22.491-48.646-48.329-50.595-57.066-1.3-6.041 3.992-14.127 23.023-34.853 15.039-16.357 49.481-46.005 59.043-50.652 4.363-2.231 8.912-1.766 15.039 1.3Z" fill="#fff"/><path d="M112.513 36.119c-9.191 4.554-40.476 31.507-55.701 48.05-16.154 17.473-21.63 25.745-20.517 31.043.557 2.881 5.013 9.294 13.368 19.331 14.854 17.938 48.553 47.958 61.364 54.836 8.634 4.554 11.605 3.996 23.766-4.926 23.023-16.915 56.444-50.467 63.592-63.944 2.321-4.368 2.878-6.227 2.414-8.643-1.578-7.993-30.357-40.43-52.637-59.297-21.445-18.03-27.201-20.726-35.649-16.45Zm12.997 33.273c3.62 9.573 6.591 17.844 6.777 18.495.278.837-1.114 1.208-4.456 1.208h-4.828l.65 17.659.65 17.659h-12.347l.65-17.659.649-17.659h-4.456c-3.063 0-4.27-.371-3.899-1.208 1.207-3.346 9.098-25.187 10.955-30.206 1.114-3.16 2.228-5.762 2.599-5.762.279 0 3.528 7.9 7.056 17.473ZM98.03 98.947c3.157 1.859 5.478 3.718 5.199 4.089-.278.372-1.949 1.023-3.899 1.395-9.19 1.672-16.339 7.714-14.39 12.082 2.6 5.669 17.268 9.387 35.928 9.201 14.668-.186 24.323-2.138 31.471-6.32 3.714-2.138 4.271-2.881 4.271-5.576 0-5.112-6.777-9.295-12.905-7.9-1.763.371-3.342.65-3.434.557-.743-.743-3.807-9.944-3.343-9.944 2.321 0 21.538 5.111 21.538 5.669 0 .465-.65.836-1.578.836-.835 0 .093 1.116 2.321 2.789 6.406 4.554 7.427 9.015 3.435 13.848-6.127 7.249-23.023 11.525-45.489 11.618-18.382 0-30.358-2.324-42.426-8.365-12.997-6.506-10.026-17.287 6.684-24.35 3.806-1.58 7.891-2.975 9.005-2.975 1.114 0 4.549 1.487 7.612 3.346Zm26.551 34.946c.186.65.743 8.736 1.207 17.938.65 12.082.557 16.915-.185 17.38-1.207.836-11.883.929-13.926.185-1.299-.557-1.485-2.509-.928-17.473.278-9.201.65-17.38.928-18.03.186-.744 2.321-1.115 6.406-1.115 4.085 0 6.22.371 6.498 1.115Z" fill="#fff"/></svg>