<svg width="238" height="227" viewBox="0 0 238 227" fill="none" xmlns="http://www.w3.org/2000/svg">
<path d="M115.298 0.986947C114.277 1.45165 108.799 7.86459 103.044 15.114C76.7712 48.2011 45.1144 78.4069 12.8077 100.806C7.05195 104.802 1.66751 109.078 0.924831 110.193C-0.839038 112.888 -0.00352102 116.42 2.78154 118.372C35.8309 141.886 47.5281 151.645 69.8086 174.043C87.3544 191.702 103.044 209.919 110.099 220.793C112.698 224.696 113.905 225.812 116.505 226.276C118.269 226.648 120.404 226.462 121.239 225.998C122.075 225.533 125.788 221.165 129.502 216.332C154.289 184.546 184.46 155.083 216.488 131.383C222.151 127.201 228.65 122.647 231.156 121.253C233.57 119.766 235.984 117.814 236.541 116.792C237.84 114.282 236.726 109.821 234.313 108.148C205.905 88.4446 192.815 77.8493 172.484 57.9599C155.124 41.0446 142.034 26.3599 130.894 11.4893C122.26 0.0575351 120.032 -1.42952 115.298 0.986947ZM127.459 31.4717C142.127 38.9069 176.848 71.1575 195.693 94.8575C205.626 107.312 206.741 109.263 206.741 113.91C206.741 116.978 205.812 119.115 202.006 124.785C185.76 149.135 133.122 196.814 120.682 198.487C114.184 199.323 103.508 192.446 80.9488 172.742C55.2334 150.25 32.3031 124.413 30.3536 115.676C29.0539 109.635 34.3455 101.549 53.3767 80.8234C68.416 64.4658 102.858 34.8175 112.42 30.1705C116.783 27.9399 121.332 28.4046 127.459 31.4717Z" fill="#5EB7FF"/>
<path d="M112.513 36.1187C103.322 40.6728 72.0366 67.6257 56.8117 84.1692C40.6583 101.642 35.1811 109.914 36.2951 115.212C36.8521 118.093 41.3082 124.506 49.6634 134.543C64.517 152.481 98.2162 182.501 111.027 189.379C119.661 193.933 122.632 193.375 134.793 184.453C157.816 167.537 191.237 133.986 198.385 120.509C200.706 116.141 201.263 114.282 200.799 111.866C199.221 103.873 170.442 71.4363 148.162 52.5693C126.717 34.5387 120.961 31.8434 112.513 36.1187ZM125.51 69.3916C129.13 78.9645 132.101 87.2363 132.287 87.8869C132.565 88.7234 131.173 89.0951 127.831 89.0951H123.003L123.653 106.754L124.303 124.413H118.083H111.956L112.606 106.754L113.255 89.0951H108.799C105.736 89.0951 104.529 88.7234 104.9 87.8869C106.107 84.541 113.998 62.6998 115.855 57.681C116.969 54.521 118.083 51.9187 118.454 51.9187C118.733 51.9187 121.982 59.8187 125.51 69.3916ZM98.0305 98.9469C101.187 100.806 103.508 102.665 103.229 103.036C102.951 103.408 101.28 104.059 99.3302 104.43C90.1395 106.103 82.9912 112.145 84.9407 116.513C87.5401 122.182 102.208 125.9 120.868 125.714C135.536 125.528 145.191 123.576 152.339 119.394C156.053 117.256 156.61 116.513 156.61 113.817C156.61 108.706 149.833 104.523 143.705 105.917C141.942 106.289 140.363 106.568 140.271 106.475C139.528 105.732 136.464 96.5304 136.928 96.5304C139.249 96.5304 158.466 101.642 158.466 102.2C158.466 102.665 157.816 103.036 156.888 103.036C156.053 103.036 156.981 104.152 159.209 105.825C165.615 110.379 166.636 114.84 162.644 119.673C156.517 126.922 139.621 131.197 117.155 131.29C98.7732 131.29 86.7974 128.967 74.7289 122.926C61.7319 116.42 64.7027 105.639 81.413 98.5751C85.2192 96.9951 89.304 95.601 90.418 95.601C91.532 95.601 94.9669 97.0881 98.0305 98.9469ZM124.581 133.893C124.767 134.543 125.324 142.629 125.788 151.83C126.438 163.913 126.345 168.746 125.603 169.21C124.396 170.047 113.72 170.14 111.677 169.396C110.378 168.839 110.192 166.887 110.749 151.923C111.027 142.722 111.399 134.543 111.677 133.893C111.863 133.149 113.998 132.777 118.083 132.777C122.168 132.777 124.303 133.149 124.581 133.893Z" fill="#5EB7FF"/>
</svg>
