<svg width="132" height="105" fill="none" xmlns="http://www.w3.org/2000/svg"><path d="M6.563 45.938h6.562v39.374H6.562A6.556 6.556 0 0 1 0 78.75V52.5a6.555 6.555 0 0 1 6.563-6.563Zm104.999-9.844v55.781A13.135 13.135 0 0 1 98.438 105H32.811a13.135 13.135 0 0 1-13.124-13.125V36.094a16.402 16.402 0 0 1 16.406-16.407h22.968V6.563a6.563 6.563 0 0 1 13.126 0v13.125h22.968a16.397 16.397 0 0 1 15.159 10.127 16.4 16.4 0 0 1 1.247 6.28ZM54.141 52.5a8.204 8.204 0 1 0-16.408 0 8.204 8.204 0 0 0 16.408 0ZM52.5 78.75H39.375v6.563H52.5V78.75Zm19.688 0H59.062v6.563h13.126V78.75ZM93.516 52.5a8.204 8.204 0 1 0-16.408 0 8.204 8.204 0 0 0 16.408 0Zm-1.641 26.25H78.75v6.563h13.125V78.75ZM131.25 52.5v26.25a6.563 6.563 0 0 1-1.92 4.643 6.545 6.545 0 0 1-4.642 1.92h-6.563V45.937h6.563a6.554 6.554 0 0 1 6.562 6.563Z" fill="#fff"/></svg>