<svg width="124" height="126" fill="none" xmlns="http://www.w3.org/2000/svg"><path d="M58.38 15.174c4.345-6.22 1.913-14.44 1.913-14.44s-8.512.502-12.848 6.714c-4.773 6.857-2.608 14.259-2.357 15.084.852-.035 8.508-.513 13.292-7.358ZM42.224 19.325C44.19 11.99 39.11 5.106 39.11 5.106s-7.829 3.4-9.785 10.74c-2.153 8.088 2.396 14.29 2.91 14.98.79-.339 7.825-3.42 9.99-11.501ZM22.981 43.028c.625-.589 6.187-5.925 5.476-14.243-.648-7.568-7.766-12.296-7.766-12.296s-6.202 5.89-5.542 13.457c.727 8.338 7.113 12.608 7.832 13.082ZM18.417 57.678c.393-.77 3.806-7.679.302-15.266-3.185-6.892-11.477-8.883-11.477-8.883s-3.826 7.662-.633 14.55c3.536 7.584 10.99 9.401 11.808 9.599ZM19.144 73.006c.102-.857.966-8.523-4.91-14.448-5.335-5.395-13.807-4.4-13.807-4.4s-.986 8.516 4.356 13.888c5.884 5.916 13.508 5.063 14.36 4.96ZM25.024 87.166c-.193-.825-1.992-8.33-9.526-11.885-6.846-3.219-14.474.613-14.474.613S2.988 84.24 9.846 87.45c7.542 3.53 14.416.102 15.178-.285ZM35.37 98.45c-.471-.722-4.713-7.152-12.998-7.899-7.53-.656-13.382 5.557-13.382 5.557s4.686 7.161 12.216 7.825c8.28.731 13.575-4.854 14.164-5.482ZM48.925 105.496c-.687-.517-6.858-5.103-14.898-2.95-7.302 1.975-10.692 9.827-10.692 9.827s6.842 5.135 14.14 3.16c8.045-2.177 11.113-9.247 11.45-10.037ZM49.055 109.81c-6.194 4.344-6.709 12.907-6.709 12.907s8.17 2.457 14.36-1.903c6.824-4.799 7.307-12.497 7.354-13.358-.817-.253-8.178-2.437-15.005 2.354ZM65.655 111.461c-4.345 6.217-1.913 14.436-1.913 14.436s8.512-.501 12.848-6.714c4.773-6.853 2.608-14.255 2.357-15.08-.852.035-8.508.509-13.292 7.358ZM81.81 107.306c-1.963 7.338 3.116 14.219 3.116 14.219s7.828-3.401 9.784-10.744c2.153-8.081-2.396-14.29-2.91-14.981-.79.344-7.825 3.428-9.99 11.506ZM88.284 89.734c6.897-1.185 11.16-7.659 11.16-7.659a20.44 20.44 0 0 0-3.76-2.966c6.081-3.488 7.88-11.036 7.88-11.036a20.324 20.324 0 0 0-4.537-1.48c4.525-5.369 3.649-13.079 3.649-13.079a20.279 20.279 0 0 0-4.772.154c2.427-6.6-1.018-13.547-1.018-13.547a20.433 20.433 0 0 0-4.434 1.79c.035-7.04-5.562-12.383-5.562-12.383a20.462 20.462 0 0 0-3.56 3.207c-2.356-6.628-9.426-9.72-9.426-9.72a20.571 20.571 0 0 0-2.255 4.238c-4.47-5.416-12.177-5.89-12.177-5.89a20.77 20.77 0 0 0-.675 4.74c-6.045-3.555-13.446-1.347-13.446-1.347a20.66 20.66 0 0 0 .955 4.709c-6.886-1.26-13.092 3.357-13.092 3.357a20.617 20.617 0 0 0 2.521 4.08c-6.897 1.185-11.159 7.662-11.159 7.662a20.621 20.621 0 0 0 3.76 2.967c-6.081 3.487-7.88 11.035-7.88 11.035a20.445 20.445 0 0 0 4.552 1.49c-4.525 5.367-3.649 13.08-3.649 13.08 1.591.137 3.193.084 4.772-.157-2.427 6.604 1.018 13.547 1.018 13.547a20.19 20.19 0 0 0 4.434-1.789c-.035 7.043 5.563 12.383 5.563 12.383a20.466 20.466 0 0 0 3.558-3.208c2.357 6.628 9.428 9.721 9.428 9.721a20.581 20.581 0 0 0 2.254-4.234c4.47 5.415 12.177 5.889 12.177 5.889.407-1.549.633-3.139.675-4.74 6.046 3.555 13.446 1.343 13.446 1.343a20.64 20.64 0 0 0-.954-4.716c6.885 1.256 13.091-3.361 13.091-3.361a20.622 20.622 0 0 0-2.537-4.08Zm-30.285-3.417a18.666 18.666 0 0 0-7.58-2.765 18.778 18.778 0 0 0-6.183-5.213 18.849 18.849 0 0 0-4.034-7.007 18.979 18.979 0 0 0-1.407-7.998 18.993 18.993 0 0 0 1.395-7.99 18.787 18.787 0 0 0 4.026-7.027 18.761 18.761 0 0 0 6.175-5.214 18.721 18.721 0 0 0 7.577-2.765 18.73 18.73 0 0 0 8.068 0 18.726 18.726 0 0 0 7.58 2.765 18.703 18.703 0 0 0 6.184 5.19 18.872 18.872 0 0 0 4.034 7.023 18.981 18.981 0 0 0 1.406 7.986 18.97 18.97 0 0 0-1.395 7.986 18.815 18.815 0 0 0-4.026 7.027 18.764 18.764 0 0 0-6.175 5.218 18.606 18.606 0 0 0-7.577 2.764 18.6 18.6 0 0 0-8.068.02ZM101.054 83.607c-.625.589-6.187 5.893-5.476 14.24.648 7.571 7.766 12.295 7.766 12.295s6.198-5.885 5.542-13.457c-.726-8.334-7.113-12.608-7.832-13.078ZM105.618 68.962c-.393.766-3.806 7.674-.302 15.261 3.185 6.893 11.477 8.887 11.477 8.887s3.826-7.666.633-14.55c-3.536-7.588-10.991-9.405-11.808-9.598ZM119.252 58.586c-5.892-5.925-13.508-5.06-14.36-4.957-.103.853-.967 8.52 4.91 14.444 5.334 5.383 13.806 4.404 13.806 4.404s.986-8.52-4.356-13.891ZM99.011 39.47c.193.836 1.992 8.337 9.526 11.884 6.846 3.223 14.474-.612 14.474-.612s-1.964-8.342-8.822-11.553c-7.542-3.54-14.416-.111-15.178.28ZM88.665 28.185c.471.722 4.714 7.153 12.998 7.9 7.53.667 13.382-5.562 13.382-5.562s-4.686-7.161-12.216-7.825c-8.28-.738-13.575 4.859-14.164 5.487ZM75.11 21.138c.687.517 6.858 5.1 14.898 2.947 7.303-1.956 10.692-9.823 10.692-9.823s-6.842-5.135-14.14-3.16c-8.045 2.168-11.113 9.242-11.45 10.036ZM74.98 16.825c6.194-4.345 6.709-12.908 6.709-12.908s-8.17-2.456-14.36 1.9c-6.824 4.803-7.307 12.501-7.354 13.378.821.233 8.178 2.421 15.005-2.37Z" fill="#fff"/><path d="M62.018 34.6c-7.501 0-14.695 2.995-19.998 8.328a28.518 28.518 0 0 0-8.284 20.11c0 7.542 2.98 14.775 8.284 20.108a28.203 28.203 0 0 0 19.998 8.33c7.5 0 14.694-2.997 19.998-8.33a28.518 28.518 0 0 0 8.283-20.109c0-7.542-2.98-14.775-8.283-20.108a28.203 28.203 0 0 0-19.998-8.33Zm0 42.723a14.171 14.171 0 0 1-10.046-4.185 14.33 14.33 0 0 1-4.162-10.1c0-3.79 1.497-7.423 4.161-10.103a14.168 14.168 0 0 1 10.047-4.184c3.768 0 7.381 1.505 10.046 4.184a14.327 14.327 0 0 1 4.161 10.102 14.33 14.33 0 0 1-4.162 10.101 14.172 14.172 0 0 1-10.045 4.185Z" fill="#fff"/><path d="M62.017 50.82c-1.595 0-3.174.317-4.648.93a12.14 12.14 0 0 0-3.94 2.65 12.216 12.216 0 0 0-2.633 3.963 12.27 12.27 0 0 0 2.633 13.31 12.112 12.112 0 0 0 8.588 3.577c3.222 0 6.31-1.287 8.589-3.577a12.272 12.272 0 0 0 2.634-13.31 12.22 12.22 0 0 0-2.633-3.964 12.142 12.142 0 0 0-3.94-2.648 12.086 12.086 0 0 0-4.65-.93Zm0 20.701a8.414 8.414 0 0 1-5.966-2.484 8.508 8.508 0 0 1-2.47-6 8.483 8.483 0 0 1 2.47-6 8.43 8.43 0 0 1 2.737-1.839 8.414 8.414 0 0 1 9.195 1.84 8.508 8.508 0 0 1 2.472 6c0 2.25-.89 4.407-2.471 5.999a8.414 8.414 0 0 1-5.966 2.484Z" fill="#fff"/></svg>