<svg xmlns="http://www.w3.org/2000/svg" version="1.1" xmlns:xlink="http://www.w3.org/1999/xlink" xmlns:svgjs="http://svgjs.dev/svgjs" viewBox="0 0 800 800"><defs><linearGradient x1="50%" y1="0%" x2="50%" y2="100%" id="nnneon-grad"><stop stop-color="#c62368" stop-opacity="1" offset="0%"></stop><stop stop-color="#64baff" stop-opacity="1" offset="100%"></stop></linearGradient><filter id="nnneon-filter" x="-100%" y="-100%" width="400%" height="400%" filterUnits="objectBoundingBox" primitiveUnits="userSpaceOnUse" color-interpolation-filters="sRGB">
	<feGaussianBlur stdDeviation="6 0" x="0%" y="0%" width="100%" height="100%" in="SourceGraphic" edgeMode="none" result="blur"></feGaussianBlur></filter><filter id="nnneon-filter2" x="-100%" y="-100%" width="400%" height="400%" filterUnits="objectBoundingBox" primitiveUnits="userSpaceOnUse" color-interpolation-filters="sRGB">
	<feGaussianBlur stdDeviation="0 9" x="0%" y="0%" width="100%" height="100%" in="SourceGraphic" edgeMode="none" result="blur"></feGaussianBlur></filter></defs><g stroke-width="12.5" stroke="url(#nnneon-grad)" fill="none"><path d="M387.62076363062243 235.07439123745064C392.69233802244344 224.8262752278342 407.3076430916835 224.8262752278342 412.3792174835045 235.07439123745064L569.5496834600979 552.674831786688C574.0922782789156 561.8539394686165 567.4130479524324 572.6116989832934 557.1718376813669 572.6116989832934H242.82814343275993C232.5869331616944 572.6116989832934 225.9077028352113 561.8539394686165 230.4502976540291 552.674831786688L387.62076363062243 235.07439123745064Z " filter="url(#nnneon-filter)"></path><path d="M387.62076363062243 235.07439123745064C392.69233802244344 224.8262752278342 407.3076430916835 224.8262752278342 412.3792174835045 235.07439123745064L569.5496834600979 552.674831786688C574.0922782789156 561.8539394686165 567.4130479524324 572.6116989832934 557.1718376813669 572.6116989832934H242.82814343275993C232.5869331616944 572.6116989832934 225.9077028352113 561.8539394686165 230.4502976540291 552.674831786688L387.62076363062243 235.07439123745064Z " filter="url(#nnneon-filter2)" opacity="0.18"></path><path d="M387.62076363062243 235.07439123745064C392.69233802244344 224.8262752278342 407.3076430916835 224.8262752278342 412.3792174835045 235.07439123745064L569.5496834600979 552.674831786688C574.0922782789156 561.8539394686165 567.4130479524324 572.6116989832934 557.1718376813669 572.6116989832934H242.82814343275993C232.5869331616944 572.6116989832934 225.9077028352113 561.8539394686165 230.4502976540291 552.674831786688L387.62076363062243 235.07439123745064Z " filter="url(#nnneon-filter2)" opacity="0.18"></path><path d="M387.62076363062243 235.07439123745064C392.69233802244344 224.8262752278342 407.3076430916835 224.8262752278342 412.3792174835045 235.07439123745064L569.5496834600979 552.674831786688C574.0922782789156 561.8539394686165 567.4130479524324 572.6116989832934 557.1718376813669 572.6116989832934H242.82814343275993C232.5869331616944 572.6116989832934 225.9077028352113 561.8539394686165 230.4502976540291 552.674831786688L387.62076363062243 235.07439123745064Z "></path></g></svg>