<svg xmlns="http://www.w3.org/2000/svg" viewBox="0 0 800 800"><defs><filter id="b" x="-100%" y="-100%" width="400%" height="400%" filterUnits="objectBoundingBox" primitiveUnits="userSpaceOnUse" color-interpolation-filters="sRGB"><feGaussianBlur stdDeviation="6 0" x="0%" y="0%" width="100%" height="100%" in="SourceGraphic" result="blur"/></filter><filter id="c" x="-100%" y="-100%" width="400%" height="400%" filterUnits="objectBoundingBox" primitiveUnits="userSpaceOnUse" color-interpolation-filters="sRGB"><feGaussianBlur stdDeviation="0 9" x="0%" y="0%" width="100%" height="100%" in="SourceGraphic" result="blur"/></filter><linearGradient x1="50%" y1="0%" x2="50%" y2="100%" id="a"><stop stop-color="#c62368" offset="0%"/><stop stop-color="#64baff" offset="100%"/></linearGradient></defs><g stroke-width="12.5" stroke="url(#a)" fill="none"><path d="M387.62 235.074c5.072-10.248 19.688-10.248 24.76 0l157.17 317.6c4.542 9.18-2.137 19.938-12.378 19.938H242.828c-10.241 0-16.92-10.758-12.378-19.937l157.17-317.6Z" filter="url(#b)"/><path d="M387.62 235.074c5.072-10.248 19.688-10.248 24.76 0l157.17 317.6c4.542 9.18-2.137 19.938-12.378 19.938H242.828c-10.241 0-16.92-10.758-12.378-19.937l157.17-317.6Z" filter="url(#c)" opacity=".18"/><path d="M387.62 235.074c5.072-10.248 19.688-10.248 24.76 0l157.17 317.6c4.542 9.18-2.137 19.938-12.378 19.938H242.828c-10.241 0-16.92-10.758-12.378-19.937l157.17-317.6Z" filter="url(#c)" opacity=".18"/><path d="M387.62 235.074c5.072-10.248 19.688-10.248 24.76 0l157.17 317.6c4.542 9.18-2.137 19.938-12.378 19.938H242.828c-10.241 0-16.92-10.758-12.378-19.937l157.17-317.6Z"/></g></svg>