<svg xmlns="http://www.w3.org/2000/svg" viewBox="0 0 800 800"><defs><linearGradient x1="50%" y1="0%" x2="50%" y2="100%" id="a"><stop stop-color="#c62368" offset="45%"/><stop stop-color="#64baff" offset="100%"/></linearGradient></defs><g stroke-width="2" stroke="url(#a)" fill="none"><path d="M669.19 368.505c6.147 108.755-79.808 245.686-180.423 287.423-100.615 41.738-235.801-3.46-302.53-87.084-66.73-83.625-74.648-223.701-17.768-314.313 56.879-90.612 186.471-144.37 290.788-120.625C563.574 157.65 663.04 259.75 669.189 368.505c6.148 108.755-79.807 245.686-180.422 287.423"/><path d="M644.717 371.368c5.59 98.868-72.551 223.351-164.02 261.294-91.468 37.943-214.365-3.145-275.027-79.168-60.663-76.022-67.862-203.364-16.153-285.739 51.708-82.374 169.52-131.245 264.353-109.659S639.128 272.5 644.717 371.368c5.59 98.868-72.551 223.351-164.02 261.294"/><path d="M620.246 374.231c5.03 88.981-65.297 201.016-147.618 235.165-82.322 34.149-192.929-2.831-247.525-71.251-54.597-68.42-61.075-183.028-14.538-257.165 46.538-74.137 152.568-118.121 237.918-98.694 85.35 19.428 166.733 102.964 171.763 191.945 5.03 88.981-65.297 201.016-147.618 235.165"/><path d="M595.774 377.094c4.471 79.095-58.041 178.681-131.216 209.036-73.175 30.354-171.492-2.517-220.022-63.334-48.53-60.818-54.29-162.692-12.923-228.592s135.616-104.996 211.483-87.727C518.963 223.746 591.303 298 595.774 377.094c4.471 79.095-58.041 178.681-131.216 209.036"/><path d="M571.302 379.958c3.913 69.207-50.786 156.345-114.814 182.906-64.028 26.56-150.055-2.202-192.52-55.418-42.463-53.216-47.502-142.355-11.306-200.017 36.196-57.663 118.664-91.872 185.047-76.762s129.68 80.083 133.593 149.29c3.913 69.208-50.786 156.346-114.814 182.907"/><path d="M546.83 382.82c3.354 59.322-43.53 134.012-98.412 156.777-54.88 22.766-128.619-1.887-165.016-47.5-36.398-45.614-40.717-122.019-9.692-171.444 31.025-49.425 101.712-78.747 158.612-65.795 56.9 12.951 111.155 68.642 114.508 127.963 3.354 59.32-43.53 134.01-98.412 156.776"/><path d="M522.359 385.684c2.794 49.434-36.276 111.676-82.01 130.647-45.734 18.972-107.183-1.573-137.514-39.584-30.331-38.01-33.93-101.682-8.077-142.87 25.855-41.187 84.76-65.622 132.177-54.829 47.417 10.793 92.63 57.202 95.424 106.636 2.794 49.434-36.276 111.676-82.01 130.647"/><path d="M497.887 388.547c2.236 39.547-29.02 89.34-65.608 104.518-36.587 15.177-85.746-1.258-110.011-31.667-24.265-30.41-27.145-81.346-6.461-114.296 20.683-32.95 67.808-52.498 105.741-43.864 37.933 8.635 74.103 45.762 76.339 85.31 2.236 39.546-29.02 89.34-65.608 104.517"/><path d="M473.415 391.41c1.677 29.66-21.765 67.006-49.206 78.389-27.44 11.383-64.31-.944-82.508-23.75-18.199-22.807-20.358-61.01-4.846-85.722 15.513-24.713 50.856-39.374 79.306-32.898 28.45 6.476 55.578 34.321 57.254 63.981 1.677 29.66-21.765 67.006-49.206 78.389"/><path d="M448.944 394.274c1.117 19.773-14.51 44.67-32.804 52.258-18.294 7.59-42.873-.629-55.006-15.833-12.133-15.205-13.572-40.673-3.23-57.148 10.341-16.475 33.903-26.249 52.87-21.932s37.052 22.881 38.17 42.655c1.117 19.773-14.51 44.67-32.804 52.258"/><path d="M424.472 397.137c.559 9.887-7.255 22.335-16.402 26.13-9.147 3.794-21.437-.315-27.503-7.918-6.066-7.602-6.786-20.336-1.615-28.573 5.17-8.238 16.952-13.125 26.435-10.966 9.483 2.158 18.526 11.44 19.085 21.327.559 9.887-7.255 22.335-16.402 26.13"/></g></svg>